<?xml version="1.0" encoding="UTF-8" standalone="no"?>
<!-- Generator: Adobe Illustrator 15.0.0, SVG Export Plug-In . SVG Version: 6.00 Build 0)  -->

<svg
   xmlns:dc="http://purl.org/dc/elements/1.1/"
   xmlns:cc="http://creativecommons.org/ns#"
   xmlns:rdf="http://www.w3.org/1999/02/22-rdf-syntax-ns#"
   xmlns:svg="http://www.w3.org/2000/svg"
   xmlns="http://www.w3.org/2000/svg"
   xmlns:xlink="http://www.w3.org/1999/xlink"
   xmlns:sodipodi="http://sodipodi.sourceforge.net/DTD/sodipodi-0.dtd"
   xmlns:inkscape="http://www.inkscape.org/namespaces/inkscape"
   version="1.1"
   id="svg2"
   x="0px"
   y="0px"
   width="150"
   height="50"
   viewBox="0 0 150 50"
   enable-background="new 0 0 308.25 76.25"
   xml:space="preserve"
   inkscape:version="0.91pre3 r13670"
   sodipodi:docname="ico_dolby.svg"><metadata
     id="metadata21"><rdf:RDF><cc:Work
         rdf:about=""><dc:format>image/svg+xml</dc:format><dc:type
           rdf:resource="http://purl.org/dc/dcmitype/StillImage" /><dc:title /></cc:Work></rdf:RDF></metadata><defs
     id="defs19"><linearGradient
       inkscape:collect="always"
       id="linearGradient4162"><stop
         style="stop-color:#ffffff;stop-opacity:1;"
         offset="0"
         id="stop4164" /><stop
         style="stop-color:#999999;stop-opacity:1"
         offset="1"
         id="stop4166" /></linearGradient><linearGradient
       inkscape:collect="always"
       id="linearGradient4154"><stop
         style="stop-color:#00284a;stop-opacity:1;"
         offset="0"
         id="stop4156" /><stop
         style="stop-color:#000000;stop-opacity:1"
         offset="1"
         id="stop4158" /></linearGradient><linearGradient
       inkscape:collect="always"
       xlink:href="#linearGradient4154"
       id="linearGradient4160"
       x1="50.476055"
       y1="29.854862"
       x2="93.398026"
       y2="-33.420177"
       gradientUnits="userSpaceOnUse" /><linearGradient
       inkscape:collect="always"
       xlink:href="#linearGradient4162"
       id="linearGradient4168"
       x1="63.584183"
       y1="1.3730028"
       x2="-15.027233"
       y2="62.706097"
       gradientUnits="userSpaceOnUse" /></defs><sodipodi:namedview
     pagecolor="#ffffff"
     bordercolor="#666666"
     borderopacity="1"
     objecttolerance="10"
     gridtolerance="10"
     guidetolerance="10"
     inkscape:pageopacity="0"
     inkscape:pageshadow="2"
     inkscape:window-width="1531"
     inkscape:window-height="878"
     id="namedview17"
     showgrid="false"
     inkscape:zoom="6.1793718"
     inkscape:cx="102.46508"
     inkscape:cy="26.935013"
     inkscape:window-x="61"
     inkscape:window-y="-8"
     inkscape:window-maximized="1"
     inkscape:current-layer="layer2" /><g
     inkscape:groupmode="layer"
     id="layer1"
     inkscape:label="Back"
     style="display:inline" /><g
     inkscape:groupmode="layer"
     id="layer2"
     inkscape:label="Text"><path
       id="path257"
       d="m 62.683935,43.514098 -8.117377,0 c -8.418361,0 -15.434099,-8.300983 -15.434099,-18.601312 0,-9.973769 7.015738,-18.4314746 15.434099,-18.4314746 l 8.116065,0 0.0013,37.0327866 0,0 z m -46.203279,0 -8.1009838,0 0,-37.0327866 8.1009838,0 c 8.402623,0 15.441967,8.4570486 15.441967,18.4308196 0.0013,10.300984 -7.038689,18.601967 -15.441967,18.601967 M 0,50 l 71.051148,0 0,-50 L 0,0 0,50 Z"
       inkscape:connector-curvature="0"
       style="display:inline;fill:url(#linearGradient4160);fill-opacity:1;stroke:url(#linearGradient4168);stroke-width:1;stroke-miterlimit:4;stroke-dasharray:none;stroke-opacity:1" /><path
       id="path239"
       d="m 82.521982,33.643281 c 0,-0.619013 -0.201666,-0.851045 -0.806274,-0.851045 l -2.759085,0 0,6.25281 2.743123,0 c 0.553608,0 0.822236,-0.171688 0.822236,-0.825739 l 0,-4.576026 z m -0.562952,6.927108 -5.086029,0 0,-9.312449 5.178297,0 c 1.869498,0 2.544572,0.835083 2.544572,2.35731 l 0,4.366963 c 0,2.037683 -0.834693,2.588176 -2.63684,2.588176"
       inkscape:connector-curvature="0"
       style="fill:#ffffff;fill-opacity:1" /><path
       style="fill:#ffffff;fill-opacity:1"
       d="m 86.756185,31.254824 2.072332,0 0,9.315563 -2.072332,0 z"
       id="rect241"
       inkscape:connector-curvature="0" /><path
       id="path243"
       d="m 97.305888,40.570389 -0.2153,-0.627968 c -0.30989,0.399828 -0.900484,0.790702 -2.328887,0.790702 l -1.022734,0 c -1.775672,0 -2.744292,-0.553608 -2.744292,-2.541069 l 0,-4.67024 c 0,-2.426219 1.819665,-2.454639 3.082219,-2.454639 l 2.432444,0 c 0.93203,0 1.7383,0.177917 2.14124,0.406057 l 0,1.194422 -4.69554,0 c -0.553609,0 -0.891146,0.137818 -0.891146,0.89426 l 0,4.85828 c 0,0.606165 0.38153,0.755662 0.878688,0.755662 l 1.440859,0 c 0.38776,0 1.125899,-0.165848 1.463439,-0.340651 l 0,-2.165768 -1.950863,0 0,-1.370393 3.969863,0 0,5.270955 -1.55999,0 0,3.9e-4 z"
       inkscape:connector-curvature="0"
       style="fill:#ffffff;fill-opacity:1" /><path
       style="fill:#ffffff;fill-opacity:1"
       d="m 101.0951,31.254824 2.07272,0 0,9.315563 -2.07272,0 z"
       id="rect245"
       inkscape:connector-curvature="0" /><path
       style="fill:#ffffff;fill-opacity:1"
       d="m 109.19483,32.780168 0,7.790221 -2.0696,0 0,-7.790221 -2.80075,0 0,-1.525342 7.63995,0 0,1.525342 z"
       id="polygon247"
       inkscape:connector-curvature="0" /><path
       id="path249"
       d="m 116.32516,32.984169 -0.12186,-0.554387 -0.0432,0 -0.13159,0.554387 -1.15665,3.635436 2.63801,0 -1.1847,-3.635436 z m 2.47294,7.58622 -0.78175,-2.391571 -3.63232,0 -0.77552,2.391571 -1.8438,0 3.3197,-9.396931 2.46281,0 3.36409,9.396931 -2.11321,0 z"
       inkscape:connector-curvature="0"
       style="fill:#ffffff;fill-opacity:1" /><path
       style="fill:#ffffff;fill-opacity:1"
       d="m 129.0453,38.985871 0,1.584518 -6.35248,0 0,-9.312449 2.06961,0 0,7.727931 z"
       id="polygon251"
       inkscape:connector-curvature="0" /><path
       id="path255"
       d="m 145.75631,11.891394 -3.8733,7.010421 -3.74211,-7.010421 -3.50774,0 c 0.65678,1.188194 5.24565,9.814277 5.24565,9.814277 l 0,5.691417 3.76391,0 c 0.003,-0.76812 0,-5.6665 0,-5.6665 0,0 4.76718,-8.64516 5.43953,-9.839194 l -3.32594,0 z"
       inkscape:connector-curvature="0"
       style="fill:#ffffff;fill-opacity:1" /><path
       id="path259"
       d="m 105.21096,12.75451 c -1.06907,-0.743985 -2.86965,-1.130187 -5.20789,-1.130187 -2.281782,0 -3.938716,0.312621 -5.213338,1.136415 -1.331462,0.856496 -1.95943,2.294631 -1.95943,4.545268 l 0,4.88125 c 0,2.254142 0.653662,3.777927 1.944247,4.533201 1.042589,0.726853 2.746629,1.071787 5.228521,1.071787 2.45075,0 4.20151,-0.351163 5.20166,-1.0531 1.29409,-0.806274 1.96954,-2.367823 1.96954,-4.551499 l 0,-4.882027 c 0,-2.141241 -0.65599,-3.668528 -1.96331,-4.551109 m -1.54754,9.215508 c 0,2.749354 -0.95966,3.382382 -3.66035,3.382382 -2.694852,0 -3.65763,-0.633028 -3.65763,-3.382382 l 0,-4.645323 c 0,-2.68239 0.962778,-3.262082 3.65763,-3.262082 2.70108,0 3.66035,0.579692 3.66035,3.262082 l 0,4.645323 z"
       inkscape:connector-curvature="0"
       style="fill:#ffffff;fill-opacity:1" /><path
       id="path261"
       d="m 84.433915,11.891394 -7.764915,0 0,15.513092 8.313462,0 c 4.093663,0 5.617447,-1.674061 5.617447,-6.172223 l 0,-3.409244 c 0,-4.270022 -1.728565,-5.931625 -6.165994,-5.931625 m 2.696406,9.712667 c 0,2.717817 -1.450594,3.402625 -2.666818,3.402625 l -4.291823,0 0,-10.839347 4.291823,0 c 1.216224,0 2.666818,0.686364 2.666818,3.213806 l 0,4.222916 0,0 z"
       inkscape:connector-curvature="0"
       style="fill:#ffffff;fill-opacity:1" /><path
       style="fill:#ffffff;fill-opacity:1"
       d="m 119.7091,24.820982 -6.46382,0 0,-12.929587 -3.50073,0 0,15.511534 9.96455,0 z"
       id="polygon263"
       inkscape:connector-curvature="0" /><path
       id="path265"
       d="m 147.31864,26.052389 0.29393,0 0.45005,0.739313 0.28732,0 -0.4812,-0.753717 c 0.25034,-0.03115 0.4411,-0.162345 0.4411,-0.46134 0,-0.33598 -0.19699,-0.485867 -0.60344,-0.485867 l -0.64393,0 0,1.700534 0.25617,0 0,-0.738923 0,0 z m 0,-0.743983 0.3496,0 c 0.30017,0 0.37881,0.08759 0.37881,0.25033 0,0.186093 -0.10356,0.275247 -0.41889,0.275247 l -0.30952,0 0,-0.525577 0,0 z m -1.17496,0.625242 c 0,0.858054 0.68131,1.475509 1.49109,1.475509 0.79693,0 1.48174,-0.617455 1.48174,-1.475509 0,-0.84248 -0.68481,-1.456821 -1.48174,-1.456821 -0.80978,0 -1.49109,0.614341 -1.49109,1.456821 m 2.69135,0 c 0,0.720624 -0.52752,1.234522 -1.20026,1.234522 -0.6817,0 -1.20689,-0.513898 -1.20689,-1.234522 0,-0.701937 0.52519,-1.227125 1.20689,-1.227125 0.67196,0 1.20026,0.525578 1.20026,1.227125"
       inkscape:connector-curvature="0"
       style="fill:#ffffff;fill-opacity:1" /><path
       id="path267"
       d="m 128.28769,25.144504 -3.15697,0 0,-11.021158 0,-0.0094 3.44155,0 c 1.16601,0 1.89091,0.926961 1.89091,2.191461 0,1.94775 -0.93747,1.994468 -3.62336,2.094523 l 0,1.795916 c 2.39469,-0.0066 4.31752,-0.154558 4.31752,2.330059 3.9e-4,1.244644 -0.79343,2.618542 -2.86965,2.618542 m 1.85664,-5.950701 c 2.75053,-0.249942 3.34852,-1.600091 3.34852,-3.536939 0,-1.710268 -0.72179,-2.577275 -1.51678,-3.066647 -0.66262,-0.417347 -1.44747,-0.698822 -3.09468,-0.698822 l -7.25568,0 0,15.513091 7.34951,0 c 2.25726,0 3.19784,-0.448492 3.63232,-0.748656 0.75061,-0.496767 1.71962,-1.603594 1.71962,-3.374594 0,-2.080507 -0.7253,-4.168411 -4.18283,-4.087433"
       inkscape:connector-curvature="0"
       style="fill:#ffffff;fill-opacity:1" /></g></svg>