<?xml version="1.0" encoding="UTF-8" standalone="no"?>
<!-- Generator: Adobe Illustrator 15.1.0, SVG Export Plug-In . SVG Version: 6.00 Build 0)  -->

<svg
   xmlns:dc="http://purl.org/dc/elements/1.1/"
   xmlns:cc="http://creativecommons.org/ns#"
   xmlns:rdf="http://www.w3.org/1999/02/22-rdf-syntax-ns#"
   xmlns:svg="http://www.w3.org/2000/svg"
   xmlns="http://www.w3.org/2000/svg"
   xmlns:sodipodi="http://sodipodi.sourceforge.net/DTD/sodipodi-0.dtd"
   xmlns:inkscape="http://www.inkscape.org/namespaces/inkscape"
   version="1.1"
   id="Layer_1"
   x="0px"
   y="0px"
   width="394.73077"
   height="394.73077"
   viewBox="0 0 394.73077 394.73077"
   enable-background="new 0 0 512 512"
   xml:space="preserve"
   inkscape:version="0.48.5 r10040"
   sodipodi:docname="temp.svg"><metadata
   id="metadata76"><rdf:RDF><cc:Work
       rdf:about=""><dc:format>image/svg+xml</dc:format><dc:type
         rdf:resource="http://purl.org/dc/dcmitype/StillImage" /><dc:title /></cc:Work></rdf:RDF></metadata><defs
   id="defs74" /><sodipodi:namedview
   pagecolor="#ffffff"
   bordercolor="#666666"
   borderopacity="1"
   objecttolerance="10"
   gridtolerance="10"
   guidetolerance="10"
   inkscape:pageopacity="0"
   inkscape:pageshadow="2"
   inkscape:window-width="1366"
   inkscape:window-height="746"
   id="namedview72"
   showgrid="false"
   inkscape:zoom="1.58"
   inkscape:cx="196.88461"
   inkscape:cy="200.86701"
   inkscape:window-x="-8"
   inkscape:window-y="-8"
   inkscape:window-maximized="1"
   inkscape:current-layer="Layer_1"
   borderlayer="false"
   fit-margin-top="0"
   fit-margin-left="0"
   fit-margin-right="0"
   fit-margin-bottom="0" />

<path
   clip-rule="evenodd"
   d="m 228.88461,243.10577 0,-177.463152 c 0,-19.292 -14.334,-34.917 -32,-34.917 -17.667,0 -32,15.625 -32,34.917 l 0,177.463152 c -19.042,11.083 -32,31.501 -32,55.125 0,35.333 28.666,64 64,64 35.333,0 64,-28.667 64,-64 0,-23.624 -12.938,-44.042 -32,-55.125 z"
   id="path70"
   style="fill:#cccccc;fill-rule:evenodd"
   inkscape:connector-curvature="0"
   sodipodi:nodetypes="cssscsssc" />
<g
   inkscape:groupmode="layer"
   id="layer1"
   inkscape:label="Ebene"
   style="display:none"
   transform="translate(-59.115386,-117.76923)" /><path
   sodipodi:type="arc"
   style="fill:#000000"
   id="path3056"
   sodipodi:cx="253.83051"
   sodipodi:cy="65.084747"
   sodipodi:rx="21.694916"
   sodipodi:ry="21.694916"
   d="m 275.52542,65.084747 a 21.694916,21.694916 0 1 1 -43.38983,0 21.694916,21.694916 0 1 1 43.38983,0 z"
   transform="translate(-57.136252,-0.99169216)" /><rect
   style="fill:#000000"
   id="rect3058"
   width="43.396225"
   height="77.675659"
   x="174.84688"
   y="63.151711" /><path
   sodipodi:type="arc"
   style="fill:#cccccc;fill-opacity:1"
   id="path3056-1"
   sodipodi:cx="253.83051"
   sodipodi:cy="65.084747"
   sodipodi:rx="21.694916"
   sodipodi:ry="21.694916"
   d="m 275.52542,65.084747 a 21.694916,21.694916 0 1 1 -43.38983,0 21.694916,21.694916 0 1 1 43.38983,0 z"
   transform="translate(-57.285514,78.907187)" /></svg>