/* XPM */
static char * ch2Off_xpm[] = {
"45 28 3 1",
" 	c None",
".	c #000000",
"+	c #797979",
".............................................",
".............................................",
".............................................",
"....+++++++++++++++++++++++++++++++++++++....",
"...+++++++++++++++++++++++++++++++++++++++...",
"...+++++++++++++++++++++++++++++++++++++++...",
"...+++++++++++++++++++++++++++++++++++++++...",
"...+++++++++++++++++++++++++++++++++++++++...",
"...++++++++++....+++++++++++....++++++++++...",
"...+++++++++......+++++++++......+++++++++...",
"...++++++++...++...+++++++...++...++++++++...",
"...+++++++...++++...+++++...++++...+++++++...",
"...++++++...++++++...+++...++++++...++++++...",
"...++++++..++++++++..+++..++++++++..++++++...",
"...++++++..++++++++..+++..++++++++..++++++...",
"...++++++...++++++...+++...++++++...++++++...",
"...+++++++...++++...+++++...++++...+++++++...",
"...++++++++...++...+++++++...++...++++++++...",
"...+++++++++......+++++++++......+++++++++...",
"...++++++++++....+++++++++++....++++++++++...",
"...+++++++++++++++++++++++++++++++++++++++...",
"...+++++++++++++++++++++++++++++++++++++++...",
"...+++++++++++++++++++++++++++++++++++++++...",
"...+++++++++++++++++++++++++++++++++++++++...",
"....+++++++++++++++++++++++++++++++++++++....",
".............................................",
".............................................",
"............................................."};
