<?xml version="1.0" encoding="UTF-8" standalone="no"?>
<!-- Created with Inkscape (http://www.inkscape.org/) -->

<svg
   xmlns:dc="http://purl.org/dc/elements/1.1/"
   xmlns:cc="http://creativecommons.org/ns#"
   xmlns:rdf="http://www.w3.org/1999/02/22-rdf-syntax-ns#"
   xmlns:svg="http://www.w3.org/2000/svg"
   xmlns="http://www.w3.org/2000/svg"
   xmlns:sodipodi="http://sodipodi.sourceforge.net/DTD/sodipodi-0.dtd"
   xmlns:inkscape="http://www.inkscape.org/namespaces/inkscape"
   width="340"
   height="425"
   viewBox="0 0 340 425"
   id="svg4261"
   version="1.1"
   inkscape:version="0.91pre3 r13670"
   sodipodi:docname="displayvolume.svg">
  <defs
     id="defs4263" />
  <sodipodi:namedview
     id="base"
     pagecolor="#ffffff"
     bordercolor="#666666"
     borderopacity="1.0"
     inkscape:pageopacity="0.0"
     inkscape:pageshadow="2"
     inkscape:zoom="1.3236702"
     inkscape:cx="167.14286"
     inkscape:cy="224.50472"
     inkscape:document-units="px"
     inkscape:current-layer="layer1"
     showgrid="false"
     units="px"
     inkscape:window-width="1531"
     inkscape:window-height="878"
     inkscape:window-x="61"
     inkscape:window-y="-8"
     inkscape:window-maximized="1" />
  <metadata
     id="metadata4266">
    <rdf:RDF>
      <cc:Work
         rdf:about="">
        <dc:format>image/svg+xml</dc:format>
        <dc:type
           rdf:resource="http://purl.org/dc/dcmitype/StillImage" />
        <dc:title></dc:title>
      </cc:Work>
    </rdf:RDF>
  </metadata>
  <g
     inkscape:label="Ebene 1"
     inkscape:groupmode="layer"
     id="layer1"
     transform="translate(0,-627.36222)">
    <path
       id="rect4811"
       style="opacity:0.8;fill:#000000;fill-opacity:0.72549021;stroke:#ff0000;stroke-width:0;stroke-linecap:round;stroke-linejoin:miter;stroke-miterlimit:5.69999981;stroke-dasharray:none;stroke-dashoffset:0;stroke-opacity:1"
       d="m 26.633281,927.85907 286.733419,0 c 14.47956,0 26.13639,11.65683 26.13639,26.13639 l 0,71.73344 c 0,14.4796 -11.65683,26.1364 -26.13639,26.1364 l -286.733419,0 c -14.479558,0 -26.13638655,-11.6568 -26.13638655,-26.1364 l 0,-71.73344 c 0,-14.47956 11.65682855,-26.13639 26.13638655,-26.13639 z M 61.249034,666.96976 A 169.79109,169.79092 0 0 1 300.26253,688.45566 169.79109,169.79092 0 0 1 279.06238,927.49444 169.79109,169.79092 0 0 1 39.998187,906.5801 169.79109,169.79092 0 0 1 60.626716,667.49132" />
  </g>
</svg>
