<?xml version="1.0" encoding="UTF-8" standalone="no"?>
<!-- Created with Inkscape (http://www.inkscape.org/) -->

<svg
   xmlns:dc="http://purl.org/dc/elements/1.1/"
   xmlns:cc="http://creativecommons.org/ns#"
   xmlns:rdf="http://www.w3.org/1999/02/22-rdf-syntax-ns#"
   xmlns:svg="http://www.w3.org/2000/svg"
   xmlns="http://www.w3.org/2000/svg"
   xmlns:xlink="http://www.w3.org/1999/xlink"
   xmlns:sodipodi="http://sodipodi.sourceforge.net/DTD/sodipodi-0.dtd"
   xmlns:inkscape="http://www.inkscape.org/namespaces/inkscape"
   width="150"
   height="150"
   id="svg2"
   version="1.1"
   inkscape:version="0.91pre2 r13516"
   viewBox="0 0 150 150"
   sodipodi:docname="tacho_percent_back.svg">
  <defs
     id="defs4">
    <linearGradient
       inkscape:collect="always"
       id="linearGradient4633">
      <stop
         style="stop-color:#e6e6e6;stop-opacity:1;"
         offset="0"
         id="stop4635" />
      <stop
         style="stop-color:#999999;stop-opacity:1"
         offset="1"
         id="stop4637" />
    </linearGradient>
    <linearGradient
       inkscape:collect="always"
       id="linearGradient4620">
      <stop
         style="stop-color:#b3b3b3;stop-opacity:1;"
         offset="0"
         id="stop4622" />
      <stop
         style="stop-color:#b3b3b3;stop-opacity:0;"
         offset="1"
         id="stop4624" />
    </linearGradient>
    <radialGradient
       inkscape:collect="always"
       xlink:href="#linearGradient4620"
       id="radialGradient4626"
       cx="110.27615"
       cy="12.330762"
       fx="110.27615"
       fy="12.330762"
       r="74.998166"
       gradientTransform="matrix(-1.8628953,0.67964205,-0.52439662,-1.4373683,322.17528,-44.829535)"
       gradientUnits="userSpaceOnUse" />
    <linearGradient
       inkscape:collect="always"
       xlink:href="#linearGradient4633"
       id="linearGradient4643"
       x1="80.356987"
       y1="68.492752"
       x2="68.958046"
       y2="80.47979"
       gradientUnits="userSpaceOnUse"
       gradientTransform="matrix(0.94150667,0,0,0.94152267,4.3869559,4.3857232)" />
    <filter
       inkscape:collect="always"
       style="color-interpolation-filters:sRGB"
       id="filter4263"
       x="-0.05507957"
       width="1.1101591"
       y="-0.026737965"
       height="1.0534759">
      <feGaussianBlur
         inkscape:collect="always"
         stdDeviation="0.39862517"
         id="feGaussianBlur4265" />
    </filter>
  </defs>
  <sodipodi:namedview
     id="base"
     pagecolor="#ffffff"
     bordercolor="#666666"
     borderopacity="1.0"
     inkscape:pageopacity="0.0"
     inkscape:pageshadow="2"
     inkscape:zoom="5.2556286"
     inkscape:cx="65.064049"
     inkscape:cy="72.768692"
     inkscape:document-units="px"
     inkscape:current-layer="layer5"
     showgrid="false"
     units="px"
     showguides="false"
     inkscape:window-width="1846"
     inkscape:window-height="1058"
     inkscape:window-x="66"
     inkscape:window-y="-8"
     inkscape:window-maximized="1" />
  <metadata
     id="metadata7">
    <rdf:RDF>
      <cc:Work
         rdf:about="">
        <dc:format>image/svg+xml</dc:format>
        <dc:type
           rdf:resource="http://purl.org/dc/dcmitype/StillImage" />
        <dc:title></dc:title>
      </cc:Work>
    </rdf:RDF>
  </metadata>
  <g
     inkscape:groupmode="layer"
     id="layer2"
     inkscape:label="Uhr"
     style="display:inline" />
  <g
     inkscape:groupmode="layer"
     id="layer3"
     inkscape:label="Ziffernblatt" />
  <g
     inkscape:groupmode="layer"
     id="layer5"
     inkscape:label="Ziffern">
    <g
       id="g4406">
      <path
         sodipodi:open="true"
         d="M 28.394987,19.250286 A 72.763588,72.685867 0 0 1 130.82373,28.448256 72.763588,72.685867 0 0 1 121.73828,130.77851 72.763588,72.685867 0 0 1 19.28783,121.82499 72.763588,72.685867 0 0 1 28.128539,19.473353"
         sodipodi:end="4.012464"
         sodipodi:start="4.0172418"
         sodipodi:ry="72.685867"
         sodipodi:rx="72.763588"
         sodipodi:cy="75.070084"
         sodipodi:cx="74.999954"
         sodipodi:type="arc"
         id="path4618"
         style="display:inline;opacity:0.75;fill:#000000;fill-opacity:1;stroke:url(#radialGradient4626);stroke-width:4.494;stroke-linecap:square;stroke-linejoin:bevel;stroke-miterlimit:4;stroke-dasharray:none;stroke-dashoffset:0;stroke-opacity:1" />
      <path
         d="M 70.175796,69.215654 A 7.5318813,7.5319991 0 0 1 80.778362,70.168778 7.5318813,7.5319991 0 0 1 79.837929,80.772642 7.5318813,7.5319991 0 0 1 69.233115,79.844873 7.5318813,7.5319991 0 0 1 70.14819,69.23879"
         sodipodi:open="true"
         sodipodi:end="4.0124596"
         sodipodi:start="4.0172418"
         sodipodi:ry="7.5319991"
         sodipodi:rx="7.5318813"
         sodipodi:cy="74.999924"
         sodipodi:cx="74.999954"
         sodipodi:type="arc"
         id="path4631"
         style="display:inline;opacity:0.75;fill:url(#linearGradient4643);fill-opacity:1;stroke:#999999;stroke-width:0.94151461;stroke-linecap:square;stroke-linejoin:bevel;stroke-miterlimit:4;stroke-dasharray:none;stroke-dashoffset:0;stroke-opacity:1" />
      <path
         sodipodi:nodetypes="ccccc"
         inkscape:connector-curvature="0"
         id="path4245"
         d="m 128.27004,104.31786 c 4.05369,-9.895602 6.31749,-18.412239 6.97609,-29.704639 l 10.35162,0 c -0.28964,12.8754 -3.86039,23.940773 -9.22644,35.780599 z"
         style="display:inline;fill:#d40000;fill-rule:evenodd;stroke:#000000;stroke-width:0;stroke-linecap:butt;stroke-linejoin:miter;stroke-miterlimit:4;stroke-dasharray:none;stroke-opacity:1;filter:url(#filter4263)" />
      <rect
         inkscape:transform-center-y="63.763147"
         inkscape:transform-center-x="-1.380587e-005"
         style="display:inline;opacity:1;fill:#cccccc;fill-opacity:1;stroke:#999999;stroke-width:0;stroke-linecap:square;stroke-linejoin:bevel;stroke-miterlimit:4;stroke-dasharray:none;stroke-dashoffset:0;stroke-opacity:1"
         id="rect4651"
         width="1.999997"
         height="14.240295"
         x="74.000023"
         y="131.489" />
      <rect
         inkscape:transform-center-y="55.220514"
         inkscape:transform-center-x="31.881558"
         style="display:inline;opacity:1;fill:#cccccc;fill-opacity:1;stroke:#999999;stroke-width:0;stroke-linecap:square;stroke-linejoin:bevel;stroke-miterlimit:4;stroke-dasharray:none;stroke-dashoffset:0;stroke-opacity:1"
         id="rect4656"
         width="1.999997"
         height="14.240295"
         x="101.37493"
         y="83.961533"
         transform="matrix(0.8660254,0.5,-0.5,0.8660254,0,0)" />
      <rect
         transform="matrix(0.5,0.8660254,-0.8660254,0.5,0,0)"
         y="29.114088"
         x="101.31856"
         height="14.240295"
         width="1.999997"
         id="rect4658"
         style="display:inline;opacity:1;fill:#cccccc;fill-opacity:1;stroke:#999999;stroke-width:0;stroke-linecap:square;stroke-linejoin:bevel;stroke-miterlimit:4;stroke-dasharray:none;stroke-dashoffset:0;stroke-opacity:1"
         inkscape:transform-center-x="55.220498"
         inkscape:transform-center-y="31.881587" />
      <rect
         inkscape:transform-center-y="1.4955199e-005"
         inkscape:transform-center-x="63.763147"
         style="display:inline;opacity:1;fill:#cccccc;fill-opacity:1;stroke:#999999;stroke-width:0;stroke-linecap:square;stroke-linejoin:bevel;stroke-miterlimit:4;stroke-dasharray:none;stroke-dashoffset:0;stroke-opacity:1"
         id="rect4660"
         width="1.999997"
         height="14.240295"
         x="73.846016"
         y="-18.357008"
         transform="matrix(0,1,-1,0,0,0)" />
      <rect
         transform="matrix(-0.5,0.8660254,-0.8660254,-0.5,0,0)"
         y="-45.731911"
         x="26.31855"
         height="14.240295"
         width="1.999997"
         id="rect4662"
         style="display:inline;opacity:1;fill:#cccccc;fill-opacity:1;stroke:#999999;stroke-width:0;stroke-linecap:square;stroke-linejoin:bevel;stroke-miterlimit:4;stroke-dasharray:none;stroke-dashoffset:0;stroke-opacity:1"
         inkscape:transform-center-x="55.220514"
         inkscape:transform-center-y="-31.881561" />
      <rect
         inkscape:transform-center-y="-55.220498"
         inkscape:transform-center-x="31.881587"
         style="display:inline;opacity:1;fill:#cccccc;fill-opacity:1;stroke:#999999;stroke-width:0;stroke-linecap:square;stroke-linejoin:bevel;stroke-miterlimit:4;stroke-dasharray:none;stroke-dashoffset:0;stroke-opacity:1"
         id="rect4664"
         width="1.999997"
         height="14.240295"
         x="-28.528894"
         y="-45.675541"
         transform="matrix(-0.8660254,0.5,-0.5,-0.8660254,0,0)" />
      <rect
         transform="scale(-1,-1)"
         y="-18.203001"
         x="-75.999992"
         height="14.240295"
         width="1.999997"
         id="rect4666"
         style="display:inline;opacity:1;fill:#cccccc;fill-opacity:1;stroke:#999999;stroke-width:0;stroke-linecap:square;stroke-linejoin:bevel;stroke-miterlimit:4;stroke-dasharray:none;stroke-dashoffset:0;stroke-opacity:1"
         inkscape:transform-center-x="1.2844736e-005"
         inkscape:transform-center-y="-63.763147" />
      <rect
         inkscape:transform-center-y="-55.220513"
         inkscape:transform-center-x="-31.881559"
         style="display:inline;opacity:1;fill:#cccccc;fill-opacity:1;stroke:#999999;stroke-width:0;stroke-linecap:square;stroke-linejoin:bevel;stroke-miterlimit:4;stroke-dasharray:none;stroke-dashoffset:0;stroke-opacity:1"
         id="rect4668"
         width="1.999997"
         height="14.240295"
         x="-103.37489"
         y="29.324465"
         transform="matrix(-0.8660254,-0.5,0.5,-0.8660254,0,0)" />
      <rect
         transform="matrix(-0.5,-0.8660254,0.8660254,-0.5,0,0)"
         y="84.171913"
         x="-103.31852"
         height="14.240295"
         width="1.999997"
         id="rect4670"
         style="display:inline;opacity:1;fill:#cccccc;fill-opacity:1;stroke:#999999;stroke-width:0;stroke-linecap:square;stroke-linejoin:bevel;stroke-miterlimit:4;stroke-dasharray:none;stroke-dashoffset:0;stroke-opacity:1"
         inkscape:transform-center-x="-55.220498"
         inkscape:transform-center-y="-31.881592" />
      <rect
         inkscape:transform-center-y="-2.044845e-005"
         inkscape:transform-center-x="-63.763147"
         style="display:inline;opacity:1;fill:#cccccc;fill-opacity:1;stroke:#999999;stroke-width:0;stroke-linecap:square;stroke-linejoin:bevel;stroke-miterlimit:4;stroke-dasharray:none;stroke-dashoffset:0;stroke-opacity:1"
         id="rect4672"
         width="1.999997"
         height="14.240295"
         x="-75.845978"
         y="131.64301"
         transform="matrix(0,-1,1,0,0,0)" />
      <rect
         transform="matrix(0.5,-0.8660254,0.8660254,0.5,0,0)"
         y="159.01791"
         x="-28.318512"
         height="14.240295"
         width="1.999997"
         id="rect4674"
         style="display:inline;opacity:1;fill:#cccccc;fill-opacity:1;stroke:#999999;stroke-width:0;stroke-linecap:square;stroke-linejoin:bevel;stroke-miterlimit:4;stroke-dasharray:none;stroke-dashoffset:0;stroke-opacity:1"
         inkscape:transform-center-x="-55.220518"
         inkscape:transform-center-y="31.881558" />
      <rect
         transform="matrix(0.9945219,0.10452846,-0.10452846,0.9945219,0,0)"
         y="126.76038"
         x="81.426651"
         height="10.718534"
         width="1.9999983"
         id="rect4676"
         style="display:inline;opacity:1;fill:#808080;fill-opacity:1;stroke:#999999;stroke-width:0;stroke-linecap:square;stroke-linejoin:bevel;stroke-miterlimit:4;stroke-dasharray:none;stroke-dashoffset:0;stroke-opacity:1"
         inkscape:transform-center-x="6.8351622"
         inkscape:transform-center-y="65.032436" />
      <rect
         transform="matrix(0.9781476,0.20791169,-0.20791169,0.9781476,0,0)"
         inkscape:transform-center-y="63.961713"
         inkscape:transform-center-x="13.595462"
         style="display:inline;opacity:1;fill:#808080;fill-opacity:1;stroke:#999999;stroke-width:0;stroke-linecap:square;stroke-linejoin:bevel;stroke-miterlimit:4;stroke-dasharray:none;stroke-dashoffset:0;stroke-opacity:1"
         id="rect4688"
         width="1.9999983"
         height="10.718534"
         x="87.950188"
         y="117.77891" />
      <rect
         y="108.16473"
         x="93.499168"
         height="10.718534"
         width="1.9999983"
         id="rect4690"
         style="display:inline;opacity:1;fill:#808080;fill-opacity:1;stroke:#999999;stroke-width:0;stroke-linecap:square;stroke-linejoin:bevel;stroke-miterlimit:4;stroke-dasharray:none;stroke-dashoffset:0;stroke-opacity:1"
         inkscape:transform-center-x="20.206801"
         inkscape:transform-center-y="62.190201"
         transform="matrix(0.95105652,0.30901699,-0.30901699,0.95105652,0,0)" />
      <rect
         transform="matrix(0.91354546,0.40673664,-0.40673664,0.91354546,0,0)"
         inkscape:transform-center-y="59.737327"
         inkscape:transform-center-x="26.596754"
         style="display:inline;opacity:1;fill:#808080;fill-opacity:1;stroke:#999999;stroke-width:0;stroke-linecap:square;stroke-linejoin:bevel;stroke-miterlimit:4;stroke-dasharray:none;stroke-dashoffset:0;stroke-opacity:1"
         id="rect4692"
         width="1.9999983"
         height="10.718534"
         x="98.012794"
         y="98.023193" />
      <rect
         y="76.607063"
         x="103.74807"
         height="10.718534"
         width="1.9999983"
         id="rect4694"
         style="display:inline;opacity:1;fill:#808080;fill-opacity:1;stroke:#999999;stroke-width:0;stroke-linecap:square;stroke-linejoin:bevel;stroke-miterlimit:4;stroke-dasharray:none;stroke-dashoffset:0;stroke-opacity:1"
         inkscape:transform-center-x="38.435639"
         inkscape:transform-center-y="52.902143"
         transform="matrix(0.809017,0.58778525,-0.58778525,0.809017,0,0)" />
      <rect
         transform="matrix(0.74314483,0.6691306,-0.6691306,0.74314483,0,0)"
         inkscape:transform-center-y="48.594723"
         inkscape:transform-center-x="43.754863"
         style="display:inline;opacity:1;fill:#808080;fill-opacity:1;stroke:#999999;stroke-width:0;stroke-linecap:square;stroke-linejoin:bevel;stroke-miterlimit:4;stroke-dasharray:none;stroke-dashoffset:0;stroke-opacity:1"
         id="rect4696"
         width="1.9999983"
         height="10.718534"
         x="104.90688"
         y="65.567108" />
      <rect
         y="54.466499"
         x="104.90536"
         height="10.718534"
         width="1.9999983"
         id="rect4698"
         style="display:inline;opacity:1;fill:#808080;fill-opacity:1;stroke:#999999;stroke-width:0;stroke-linecap:square;stroke-linejoin:bevel;stroke-miterlimit:4;stroke-dasharray:none;stroke-dashoffset:0;stroke-opacity:1"
         inkscape:transform-center-x="48.5947"
         inkscape:transform-center-y="43.754887"
         transform="matrix(0.66913061,0.74314482,-0.74314482,0.66913061,0,0)" />
      <rect
         transform="matrix(0.58778526,0.80901699,-0.80901699,0.58778526,0,0)"
         inkscape:transform-center-y="38.435662"
         inkscape:transform-center-x="52.902125"
         style="display:inline;opacity:1;fill:#808080;fill-opacity:1;stroke:#999999;stroke-width:0;stroke-linecap:square;stroke-linejoin:bevel;stroke-miterlimit:4;stroke-dasharray:none;stroke-dashoffset:0;stroke-opacity:1"
         id="rect4700"
         width="1.9999983"
         height="10.718534"
         x="103.74351"
         y="43.426861" />
      <rect
         y="22.012312"
         x="98.002342"
         height="10.718534"
         width="1.9999983"
         id="rect4702"
         style="display:inline;opacity:1;fill:#808080;fill-opacity:1;stroke:#999999;stroke-width:0;stroke-linecap:square;stroke-linejoin:bevel;stroke-miterlimit:4;stroke-dasharray:none;stroke-dashoffset:0;stroke-opacity:1"
         inkscape:transform-center-x="59.737308"
         inkscape:transform-center-y="26.596781"
         transform="matrix(0.40673665,0.91354545,-0.91354545,0.40673665,0,0)" />
      <rect
         transform="matrix(0.309017,0.95105651,-0.95105651,0.309017,0,0)"
         inkscape:transform-center-y="20.206832"
         inkscape:transform-center-x="62.190182"
         style="display:inline;opacity:1;fill:#808080;fill-opacity:1;stroke:#999999;stroke-width:0;stroke-linecap:square;stroke-linejoin:bevel;stroke-miterlimit:4;stroke-dasharray:none;stroke-dashoffset:0;stroke-opacity:1"
         id="rect4704"
         width="1.9999983"
         height="10.718534"
         x="93.485924"
         y="11.872024" />
      <rect
         y="2.2593789"
         x="87.934296"
         height="10.718534"
         width="1.9999983"
         id="rect4706"
         style="display:inline;opacity:1;fill:#808080;fill-opacity:1;stroke:#999999;stroke-width:0;stroke-linecap:square;stroke-linejoin:bevel;stroke-miterlimit:4;stroke-dasharray:none;stroke-dashoffset:0;stroke-opacity:1"
         inkscape:transform-center-x="63.961687"
         inkscape:transform-center-y="13.595491"
         transform="matrix(0.2079117,0.9781476,-0.9781476,0.2079117,0,0)" />
      <rect
         transform="matrix(0.10452847,0.99452189,-0.99452189,0.10452847,0,0)"
         inkscape:transform-center-y="6.8351958"
         inkscape:transform-center-x="65.032414"
         style="display:inline;opacity:1;fill:#808080;fill-opacity:1;stroke:#999999;stroke-width:0;stroke-linecap:square;stroke-linejoin:bevel;stroke-miterlimit:4;stroke-dasharray:none;stroke-dashoffset:0;stroke-opacity:1"
         id="rect4708"
         width="1.9999983"
         height="10.718534"
         x="81.408287"
         y="-6.720304" />
      <rect
         y="-22.395264"
         x="65.729012"
         height="10.718534"
         width="1.9999983"
         id="rect4710"
         style="display:inline;opacity:1;fill:#808080;fill-opacity:1;stroke:#999999;stroke-width:0;stroke-linecap:square;stroke-linejoin:bevel;stroke-miterlimit:4;stroke-dasharray:none;stroke-dashoffset:0;stroke-opacity:1"
         inkscape:transform-center-x="65.032416"
         inkscape:transform-center-y="-6.8351727"
         transform="matrix(-0.10452846,0.9945219,-0.9945219,-0.10452846,0,0)" />
      <rect
         transform="matrix(-0.20791169,0.9781476,-0.9781476,-0.20791169,0,0)"
         inkscape:transform-center-y="-13.595466"
         inkscape:transform-center-x="63.961692"
         style="display:inline;opacity:1;fill:#808080;fill-opacity:1;stroke:#999999;stroke-width:0;stroke-linecap:square;stroke-linejoin:bevel;stroke-miterlimit:4;stroke-dasharray:none;stroke-dashoffset:0;stroke-opacity:1"
         id="rect4712"
         width="1.9999983"
         height="10.718534"
         x="56.747536"
         y="-28.918802" />
      <rect
         y="-34.467785"
         x="47.133366"
         height="10.718534"
         width="1.9999983"
         id="rect4714"
         style="display:inline;opacity:1;fill:#808080;fill-opacity:1;stroke:#999999;stroke-width:0;stroke-linecap:square;stroke-linejoin:bevel;stroke-miterlimit:4;stroke-dasharray:none;stroke-dashoffset:0;stroke-opacity:1"
         inkscape:transform-center-x="62.190189"
         inkscape:transform-center-y="-20.206804"
         transform="matrix(-0.30901699,0.95105652,-0.95105652,-0.30901699,0,0)" />
      <rect
         transform="matrix(-0.40673664,0.91354546,-0.91354546,-0.40673664,0,0)"
         inkscape:transform-center-y="-26.596753"
         inkscape:transform-center-x="59.737318"
         style="display:inline;opacity:1;fill:#808080;fill-opacity:1;stroke:#999999;stroke-width:0;stroke-linecap:square;stroke-linejoin:bevel;stroke-miterlimit:4;stroke-dasharray:none;stroke-dashoffset:0;stroke-opacity:1"
         id="rect4716"
         width="1.9999983"
         height="10.718534"
         x="36.991837"
         y="-38.981415" />
      <rect
         y="-44.716694"
         x="15.575709"
         height="10.718534"
         width="1.9999983"
         id="rect4718"
         style="display:inline;opacity:1;fill:#808080;fill-opacity:1;stroke:#999999;stroke-width:0;stroke-linecap:square;stroke-linejoin:bevel;stroke-miterlimit:4;stroke-dasharray:none;stroke-dashoffset:0;stroke-opacity:1"
         inkscape:transform-center-x="52.902137"
         inkscape:transform-center-y="-38.435636"
         transform="matrix(-0.58778525,0.809017,-0.809017,-0.58778525,0,0)" />
      <rect
         transform="matrix(-0.6691306,0.74314483,-0.74314483,-0.6691306,0,0)"
         inkscape:transform-center-y="-43.754862"
         inkscape:transform-center-x="48.594717"
         style="display:inline;opacity:1;fill:#808080;fill-opacity:1;stroke:#999999;stroke-width:0;stroke-linecap:square;stroke-linejoin:bevel;stroke-miterlimit:4;stroke-dasharray:none;stroke-dashoffset:0;stroke-opacity:1"
         id="rect4720"
         width="1.9999983"
         height="10.718534"
         x="4.5357528"
         y="-45.875504" />
      <rect
         y="-45.873978"
         x="-6.5648546"
         height="10.718534"
         width="1.9999983"
         id="rect4722"
         style="display:inline;opacity:1;fill:#808080;fill-opacity:1;stroke:#999999;stroke-width:0;stroke-linecap:square;stroke-linejoin:bevel;stroke-miterlimit:4;stroke-dasharray:none;stroke-dashoffset:0;stroke-opacity:1"
         inkscape:transform-center-x="43.754881"
         inkscape:transform-center-y="-48.594699"
         transform="matrix(-0.74314482,0.66913061,-0.66913061,-0.74314482,0,0)" />
      <rect
         transform="matrix(-0.80901699,0.58778526,-0.58778526,-0.80901699,0,0)"
         inkscape:transform-center-y="-52.902122"
         inkscape:transform-center-x="38.435657"
         style="display:inline;opacity:1;fill:#808080;fill-opacity:1;stroke:#999999;stroke-width:0;stroke-linecap:square;stroke-linejoin:bevel;stroke-miterlimit:4;stroke-dasharray:none;stroke-dashoffset:0;stroke-opacity:1"
         id="rect4724"
         width="1.9999983"
         height="10.718534"
         x="-17.604492"
         y="-44.712132" />
      <rect
         y="-38.970963"
         x="-39.019043"
         height="10.718534"
         width="1.9999983"
         id="rect4726"
         style="display:inline;opacity:1;fill:#808080;fill-opacity:1;stroke:#999999;stroke-width:0;stroke-linecap:square;stroke-linejoin:bevel;stroke-miterlimit:4;stroke-dasharray:none;stroke-dashoffset:0;stroke-opacity:1"
         inkscape:transform-center-x="26.596775"
         inkscape:transform-center-y="-59.737308"
         transform="matrix(-0.91354545,0.40673665,-0.40673665,-0.91354545,0,0)" />
      <rect
         transform="matrix(-0.95105651,0.309017,-0.309017,-0.95105651,0,0)"
         inkscape:transform-center-y="-62.190181"
         inkscape:transform-center-x="20.206825"
         style="display:inline;opacity:1;fill:#808080;fill-opacity:1;stroke:#999999;stroke-width:0;stroke-linecap:square;stroke-linejoin:bevel;stroke-miterlimit:4;stroke-dasharray:none;stroke-dashoffset:0;stroke-opacity:1"
         id="rect4728"
         width="1.9999983"
         height="10.718534"
         x="-49.159332"
         y="-34.454544" />
      <rect
         y="-28.902918"
         x="-58.771976"
         height="10.718534"
         width="1.9999983"
         id="rect4730"
         style="display:inline;opacity:1;fill:#808080;fill-opacity:1;stroke:#999999;stroke-width:0;stroke-linecap:square;stroke-linejoin:bevel;stroke-miterlimit:4;stroke-dasharray:none;stroke-dashoffset:0;stroke-opacity:1"
         inkscape:transform-center-x="13.595486"
         inkscape:transform-center-y="-63.961685"
         transform="matrix(-0.9781476,0.2079117,-0.2079117,-0.9781476,0,0)" />
      <rect
         transform="matrix(-0.99452189,0.10452847,-0.10452847,-0.99452189,0,0)"
         inkscape:transform-center-y="-65.032411"
         inkscape:transform-center-x="6.8351958"
         style="display:inline;opacity:1;fill:#808080;fill-opacity:1;stroke:#999999;stroke-width:0;stroke-linecap:square;stroke-linejoin:bevel;stroke-miterlimit:4;stroke-dasharray:none;stroke-dashoffset:0;stroke-opacity:1"
         id="rect4732"
         width="1.9999983"
         height="10.718534"
         x="-67.751656"
         y="-22.376909" />
      <rect
         y="2.2838387"
         x="-89.95015"
         height="10.718534"
         width="1.9999983"
         id="rect4734"
         style="display:inline;opacity:1;fill:#808080;fill-opacity:1;stroke:#999999;stroke-width:0;stroke-linecap:square;stroke-linejoin:bevel;stroke-miterlimit:4;stroke-dasharray:none;stroke-dashoffset:0;stroke-opacity:1"
         inkscape:transform-center-x="-13.59546"
         inkscape:transform-center-y="-63.961689"
         transform="matrix(-0.9781476,-0.20791169,0.20791169,-0.9781476,0,0)" />
      <rect
         transform="matrix(-0.9945219,-0.10452846,0.10452846,-0.9945219,0,0)"
         inkscape:transform-center-y="-65.032413"
         inkscape:transform-center-x="-6.8351672"
         style="display:inline;opacity:1;fill:#808080;fill-opacity:1;stroke:#999999;stroke-width:0;stroke-linecap:square;stroke-linejoin:bevel;stroke-miterlimit:4;stroke-dasharray:none;stroke-dashoffset:0;stroke-opacity:1"
         id="rect4736"
         width="1.9999983"
         height="10.718534"
         x="-83.426613"
         y="-6.6976385" />
      <rect
         transform="matrix(-0.95105652,-0.30901699,0.30901699,-0.95105652,0,0)"
         inkscape:transform-center-y="-62.190189"
         inkscape:transform-center-x="-20.2068"
         style="display:inline;opacity:1;fill:#808080;fill-opacity:1;stroke:#999999;stroke-width:0;stroke-linecap:square;stroke-linejoin:bevel;stroke-miterlimit:4;stroke-dasharray:none;stroke-dashoffset:0;stroke-opacity:1"
         id="rect4738"
         width="1.9999983"
         height="10.718534"
         x="-95.49913"
         y="11.89801" />
      <rect
         y="22.039541"
         x="-100.01276"
         height="10.718534"
         width="1.9999983"
         id="rect4740"
         style="display:inline;opacity:1;fill:#808080;fill-opacity:1;stroke:#999999;stroke-width:0;stroke-linecap:square;stroke-linejoin:bevel;stroke-miterlimit:4;stroke-dasharray:none;stroke-dashoffset:0;stroke-opacity:1"
         inkscape:transform-center-x="-26.596747"
         inkscape:transform-center-y="-59.737321"
         transform="matrix(-0.91354546,-0.40673664,0.40673664,-0.91354546,0,0)" />
      <rect
         transform="matrix(-0.74314483,-0.6691306,0.6691306,-0.74314483,0,0)"
         inkscape:transform-center-y="-48.594714"
         inkscape:transform-center-x="-43.75486"
         style="display:inline;opacity:1;fill:#808080;fill-opacity:1;stroke:#999999;stroke-width:0;stroke-linecap:square;stroke-linejoin:bevel;stroke-miterlimit:4;stroke-dasharray:none;stroke-dashoffset:0;stroke-opacity:1"
         id="rect4742"
         width="1.9999983"
         height="10.718534"
         x="-106.90685"
         y="54.495621" />
      <rect
         y="43.455666"
         x="-105.74803"
         height="10.718534"
         width="1.9999983"
         id="rect4744"
         style="display:inline;opacity:1;fill:#808080;fill-opacity:1;stroke:#999999;stroke-width:0;stroke-linecap:square;stroke-linejoin:bevel;stroke-miterlimit:4;stroke-dasharray:none;stroke-dashoffset:0;stroke-opacity:1"
         inkscape:transform-center-x="-38.435629"
         inkscape:transform-center-y="-52.902142"
         transform="matrix(-0.809017,-0.58778525,0.58778525,-0.809017,0,0)" />
      <rect
         y="65.59623"
         x="-106.90533"
         height="10.718534"
         width="1.9999983"
         id="rect4746"
         style="display:inline;opacity:1;fill:#808080;fill-opacity:1;stroke:#999999;stroke-width:0;stroke-linecap:square;stroke-linejoin:bevel;stroke-miterlimit:4;stroke-dasharray:none;stroke-dashoffset:0;stroke-opacity:1"
         inkscape:transform-center-x="-48.594699"
         inkscape:transform-center-y="-43.754879"
         transform="matrix(-0.66913061,-0.74314482,0.74314482,-0.66913061,0,0)" />
      <rect
         transform="matrix(-0.58778526,-0.80901699,0.80901699,-0.58778526,0,0)"
         inkscape:transform-center-y="-38.435656"
         inkscape:transform-center-x="-52.902119"
         style="display:inline;opacity:1;fill:#808080;fill-opacity:1;stroke:#999999;stroke-width:0;stroke-linecap:square;stroke-linejoin:bevel;stroke-miterlimit:4;stroke-dasharray:none;stroke-dashoffset:0;stroke-opacity:1"
         id="rect4748"
         width="1.9999983"
         height="10.718534"
         x="-105.74348"
         y="76.635864" />
      <rect
         y="98.050407"
         x="-100.00231"
         height="10.718534"
         width="1.9999983"
         id="rect4750"
         style="display:inline;opacity:1;fill:#808080;fill-opacity:1;stroke:#999999;stroke-width:0;stroke-linecap:square;stroke-linejoin:bevel;stroke-miterlimit:4;stroke-dasharray:none;stroke-dashoffset:0;stroke-opacity:1"
         inkscape:transform-center-x="-59.737299"
         inkscape:transform-center-y="-26.596772"
         transform="matrix(-0.40673665,-0.91354545,0.91354545,-0.40673665,0,0)" />
      <rect
         transform="matrix(-0.309017,-0.95105651,0.95105651,-0.309017,0,0)"
         inkscape:transform-center-y="-20.206824"
         inkscape:transform-center-x="-62.190172"
         style="display:inline;opacity:1;fill:#808080;fill-opacity:1;stroke:#999999;stroke-width:0;stroke-linecap:square;stroke-linejoin:bevel;stroke-miterlimit:4;stroke-dasharray:none;stroke-dashoffset:0;stroke-opacity:1"
         id="rect4752"
         width="1.9999983"
         height="10.718534"
         x="-95.485893"
         y="108.1907" />
      <rect
         y="117.80334"
         x="-89.934265"
         height="10.718534"
         width="1.9999983"
         id="rect4754"
         style="display:inline;opacity:1;fill:#808080;fill-opacity:1;stroke:#999999;stroke-width:0;stroke-linecap:square;stroke-linejoin:bevel;stroke-miterlimit:4;stroke-dasharray:none;stroke-dashoffset:0;stroke-opacity:1"
         inkscape:transform-center-x="-63.961672"
         inkscape:transform-center-y="-13.595487"
         transform="matrix(-0.2079117,-0.9781476,0.9781476,-0.2079117,0,0)" />
      <rect
         transform="matrix(-0.10452847,-0.99452189,0.99452189,-0.10452847,0,0)"
         inkscape:transform-center-y="-6.8351946"
         inkscape:transform-center-x="-65.032398"
         style="display:inline;opacity:1;fill:#808080;fill-opacity:1;stroke:#999999;stroke-width:0;stroke-linecap:square;stroke-linejoin:bevel;stroke-miterlimit:4;stroke-dasharray:none;stroke-dashoffset:0;stroke-opacity:1"
         id="rect4756"
         width="1.9999983"
         height="10.718534"
         x="-83.408257"
         y="126.78302" />
      <rect
         y="142.45798"
         x="-67.728981"
         height="10.718534"
         width="1.9999983"
         id="rect4758"
         style="display:inline;opacity:1;fill:#808080;fill-opacity:1;stroke:#999999;stroke-width:0;stroke-linecap:square;stroke-linejoin:bevel;stroke-miterlimit:4;stroke-dasharray:none;stroke-dashoffset:0;stroke-opacity:1"
         inkscape:transform-center-x="-65.032401"
         inkscape:transform-center-y="6.8351634"
         transform="matrix(0.10452846,-0.9945219,0.9945219,0.10452846,0,0)" />
      <rect
         transform="matrix(0.20791169,-0.9781476,0.9781476,0.20791169,0,0)"
         inkscape:transform-center-y="13.595459"
         inkscape:transform-center-x="-63.961682"
         style="display:inline;opacity:1;fill:#808080;fill-opacity:1;stroke:#999999;stroke-width:0;stroke-linecap:square;stroke-linejoin:bevel;stroke-miterlimit:4;stroke-dasharray:none;stroke-dashoffset:0;stroke-opacity:1"
         id="rect4760"
         width="1.9999983"
         height="10.718534"
         x="-58.747505"
         y="148.98152" />
      <rect
         y="154.5305"
         x="-49.133335"
         height="10.718534"
         width="1.9999983"
         id="rect4762"
         style="display:inline;opacity:1;fill:#808080;fill-opacity:1;stroke:#999999;stroke-width:0;stroke-linecap:square;stroke-linejoin:bevel;stroke-miterlimit:4;stroke-dasharray:none;stroke-dashoffset:0;stroke-opacity:1"
         inkscape:transform-center-x="-62.190181"
         inkscape:transform-center-y="20.206799"
         transform="matrix(0.30901699,-0.95105652,0.95105652,0.30901699,0,0)" />
      <rect
         transform="matrix(0.40673664,-0.91354546,0.91354546,0.40673664,0,0)"
         inkscape:transform-center-y="26.596748"
         inkscape:transform-center-x="-59.737308"
         style="display:inline;opacity:1;fill:#808080;fill-opacity:1;stroke:#999999;stroke-width:0;stroke-linecap:square;stroke-linejoin:bevel;stroke-miterlimit:4;stroke-dasharray:none;stroke-dashoffset:0;stroke-opacity:1"
         id="rect4764"
         width="1.9999983"
         height="10.718534"
         x="-38.991806"
         y="159.04413" />
      <g
         id="text4769"
         style="font-style:normal;font-variant:normal;font-weight:normal;font-stretch:normal;font-size:22.5px;line-height:125%;font-family:DS-Digital;-inkscape-font-specification:'DS-Digital, Normal';text-align:start;letter-spacing:0px;word-spacing:0px;writing-mode:lr-tb;text-anchor:start;fill:#008000;fill-opacity:1;stroke:none;stroke-width:1px;stroke-linecap:butt;stroke-linejoin:miter;stroke-opacity:1">
        <path
           id="path4320"
           style="font-style:normal;font-variant:normal;font-weight:normal;font-stretch:normal;font-size:22.5px;line-height:125%;font-family:DS-Digital;-inkscape-font-specification:'DS-Digital, Normal';text-align:start;writing-mode:lr-tb;text-anchor:start;fill:#008000"
           d="m 79.220289,121.62794 -0.552273,0.57272 -0.961363,-0.96136 0,-4.09091 1.513636,-1.53409 0,6.01364 z m -0.286364,-6.3 -1.513636,1.53409 -4.970455,0 -1.513636,-1.53409 7.997727,0 z m -6.75,5.91136 -0.961363,0.96136 -0.572728,-0.57272 0,-6.01364 1.534091,1.53409 0,4.09091 z m 7.036364,8.12045 -1.513636,-1.53409 0,-4.09091 0.961363,-0.96136 0.552273,0.59318 0,5.99318 z m -0.286364,0.28637 -7.997727,0 1.513636,-1.53409 4.970455,0 1.513636,1.53409 z m -6.75,-1.82046 -1.534091,1.53409 0,-5.99318 0.572728,-0.59318 0.961363,0.96136 0,4.09091 z" />
      </g>
      <g
         id="text4769-3"
         style="font-style:normal;font-variant:normal;font-weight:normal;font-stretch:normal;font-size:22.5px;line-height:125%;font-family:DS-Digital;-inkscape-font-specification:'DS-Digital, Normal';text-align:start;letter-spacing:0px;word-spacing:0px;writing-mode:lr-tb;text-anchor:start;fill:#008000;fill-opacity:1;stroke:none;stroke-width:1px;stroke-linecap:butt;stroke-linejoin:miter;stroke-opacity:1">
        <path
           id="path4323"
           style="font-style:normal;font-variant:normal;font-weight:normal;font-stretch:normal;font-size:22.5px;line-height:125%;font-family:DS-Digital;-inkscape-font-specification:'DS-Digital, Normal';text-align:start;writing-mode:lr-tb;text-anchor:start;fill:#008000"
           d="m 37.914632,95.356821 -1.513636,1.534091 -4.970454,0 -1.513637,-1.534091 7.997727,0 z m 0,14.318179 -7.997727,0 1.513637,-1.53409 4.970454,0 1.513636,1.53409 z m -6.75,-5.91136 0,4.09091 -1.53409,1.53409 0,-5.99318 0.572727,-0.59318 0.961363,0.96136 z m 5.522728,-2.49546 0,-4.090904 1.513636,-1.534091 0,6.013635 -0.552273,0.57273 -0.961363,-0.96137 z m -0.102273,0.49091 0.777273,0.75682 -0.777273,0.75682 -5.338636,0 -0.756819,-0.75682 0.756819,-0.75682 5.338636,0 z" />
        <path
           id="path4325"
           style="font-style:normal;font-variant:normal;font-weight:normal;font-stretch:normal;font-size:22.5px;line-height:125%;font-family:DS-Digital;-inkscape-font-specification:'DS-Digital, Normal';text-align:start;writing-mode:lr-tb;text-anchor:start;fill:#008000"
           d="m 49.23127,101.65682 -0.552273,0.57273 -0.961364,-0.96137 0,-4.090904 1.513637,-1.534091 0,6.013635 z m -0.286364,-6.299999 -1.513636,1.534091 -4.970455,0 -1.513636,-1.534091 7.997727,0 z m -6.75,5.911359 -0.961364,0.96137 -0.572727,-0.57273 0,-6.013635 1.534091,1.534091 0,4.090904 z m 7.036364,8.12046 -1.513637,-1.53409 0,-4.09091 0.961364,-0.96136 0.552273,0.59318 0,5.99318 z m -0.286364,0.28636 -7.997727,0 1.513636,-1.53409 4.970455,0 1.513636,1.53409 z m -6.75,-1.82045 -1.534091,1.53409 0,-5.99318 0.572727,-0.59318 0.961364,0.96136 0,4.09091 z" />
      </g>
      <g
         id="text4769-3-3"
         style="font-style:normal;font-variant:normal;font-weight:normal;font-stretch:normal;font-size:22.5px;line-height:125%;font-family:DS-Digital;-inkscape-font-specification:'DS-Digital, Normal';text-align:start;letter-spacing:0px;word-spacing:0px;writing-mode:lr-tb;text-anchor:start;fill:#008000;fill-opacity:1;stroke:none;stroke-width:1px;stroke-linecap:butt;stroke-linejoin:miter;stroke-opacity:1">
        <path
           id="path4328"
           style="font-style:normal;font-variant:normal;font-weight:normal;font-stretch:normal;font-size:22.5px;line-height:125%;font-family:DS-Digital;-inkscape-font-specification:'DS-Digital, Normal';text-align:start;writing-mode:lr-tb;text-anchor:start;fill:#008000"
           d="m 26.856,53.196818 0,-6.013636 1.534091,1.534091 0,4.090909 -0.961364,0.961364 L 26.856,53.196818 Z m 8.570454,1.738637 0,5.993182 -1.513636,-1.534091 0,-4.090909 0.961364,-0.961364 0.552272,0.593182 z m -1.513636,-2.127273 0,-4.090909 1.513636,-1.534091 0,6.013636 -0.552272,0.572728 -0.961364,-0.961364 z m -0.102273,0.490909 0.777273,0.756818 -0.777273,0.756818 -5.338636,0 -0.756818,-0.756818 0.756818,-0.756818 5.338636,0 z" />
        <path
           id="path4330"
           style="font-style:normal;font-variant:normal;font-weight:normal;font-stretch:normal;font-size:22.5px;line-height:125%;font-family:DS-Digital;-inkscape-font-specification:'DS-Digital, Normal';text-align:start;writing-mode:lr-tb;text-anchor:start;fill:#008000"
           d="m 46.456728,53.196818 -0.552273,0.572728 -0.961364,-0.961364 0,-4.090909 1.513637,-1.534091 0,6.013636 z m -0.286364,-6.3 -1.513636,1.534091 -4.970455,0 -1.513636,-1.534091 7.997727,0 z m -6.75,5.911364 -0.961364,0.961364 -0.572727,-0.572728 0,-6.013636 1.534091,1.534091 0,4.090909 z m 7.036364,8.120455 -1.513637,-1.534091 0,-4.090909 0.961364,-0.961364 0.552273,0.593182 0,5.993182 z m -0.286364,0.286363 -7.997727,0 1.513636,-1.534091 4.970455,0 1.513636,1.534091 z m -6.75,-1.820454 -1.534091,1.534091 0,-5.993182 0.572727,-0.593182 0.961364,0.961364 0,4.090909 z" />
      </g>
      <g
         id="text4769-3-3-0"
         style="font-style:normal;font-variant:normal;font-weight:normal;font-stretch:normal;font-size:22.5px;line-height:125%;font-family:DS-Digital;-inkscape-font-specification:'DS-Digital, Normal';text-align:start;letter-spacing:0px;word-spacing:0px;writing-mode:lr-tb;text-anchor:start;fill:#ffff00;fill-opacity:1;stroke:none;stroke-width:1px;stroke-linecap:butt;stroke-linejoin:miter;stroke-opacity:1">
        <path
           id="path4333"
           style="font-style:normal;font-variant:normal;font-weight:normal;font-stretch:normal;font-size:22.5px;line-height:125%;font-family:DS-Digital;-inkscape-font-specification:'DS-Digital, Normal';text-align:start;writing-mode:lr-tb;text-anchor:start;fill:#ffff00"
           d="m 73.37281,20.752955 -1.513636,1.534091 -4.970455,0 -1.513636,-1.534091 7.997727,0 z m 0,14.318181 -7.997727,0 1.513636,-1.53409 4.970455,0 1.513636,1.53409 z m -6.75,-5.911363 0,4.090909 -1.534091,1.534091 0,-5.993182 0.572727,-0.593182 0.961364,0.961364 z m -1.534091,-2.106818 0,-6.013637 1.534091,1.534091 0,4.090909 -0.961364,0.961364 -0.572727,-0.572727 z m 8.570455,1.738636 0,5.993182 -1.513637,-1.534091 0,-4.090909 0.961364,-0.961364 0.552273,0.593182 z m -1.615909,-1.636364 0.777272,0.756819 -0.777272,0.756818 -5.338637,0 -0.756818,-0.756818 0.756818,-0.756819 5.338637,0 z" />
        <path
           id="path4335"
           style="font-style:normal;font-variant:normal;font-weight:normal;font-stretch:normal;font-size:22.5px;line-height:125%;font-family:DS-Digital;-inkscape-font-specification:'DS-Digital, Normal';text-align:start;writing-mode:lr-tb;text-anchor:start;fill:#ffff00"
           d="m 84.689447,27.052955 -0.552273,0.572727 -0.961363,-0.961364 0,-4.090909 1.513636,-1.534091 0,6.013637 z m -0.286364,-6.3 -1.513636,1.534091 -4.970454,0 -1.513637,-1.534091 7.997727,0 z m -6.75,5.911363 -0.961363,0.961364 -0.572727,-0.572727 0,-6.013637 1.53409,1.534091 0,4.090909 z m 7.036364,8.120455 -1.513636,-1.534091 0,-4.090909 0.961363,-0.961364 0.552273,0.593182 0,5.993182 z m -0.286364,0.286363 -7.997727,0 1.513637,-1.53409 4.970454,0 1.513636,1.53409 z m -6.75,-1.820454 -1.53409,1.534091 0,-5.993182 0.572727,-0.593182 0.961363,0.961364 0,4.090909 z" />
      </g>
      <g
         id="text4769-3-3-0-9"
         style="font-style:normal;font-variant:normal;font-weight:normal;font-stretch:normal;font-size:22.5px;line-height:125%;font-family:DS-Digital;-inkscape-font-specification:'DS-Digital, Normal';text-align:start;letter-spacing:0px;word-spacing:0px;writing-mode:lr-tb;text-anchor:start;fill:#ffff00;fill-opacity:1;stroke:none;stroke-width:1px;stroke-linecap:butt;stroke-linejoin:miter;stroke-opacity:1">
        <path
           id="path4338"
           style="font-style:normal;font-variant:normal;font-weight:normal;font-stretch:normal;font-size:22.5px;line-height:125%;font-family:DS-Digital;-inkscape-font-specification:'DS-Digital, Normal';text-align:start;writing-mode:lr-tb;text-anchor:start;fill:#ffff00"
           d="m 110.77677,46.948088 -1.51364,1.534091 -4.97045,0 -1.51364,-1.534091 7.99773,0 z m 0,14.318182 -7.99773,0 1.51364,-1.534091 4.97045,0 1.51364,1.534091 z m -6.75,-5.911364 0,4.090909 -1.53409,1.534091 0,-5.993182 0.57272,-0.593182 0.96137,0.961364 z m -1.53409,-2.106818 0,-6.013636 1.53409,1.53409 0,4.09091 -0.96137,0.961363 -0.57272,-0.572727 z m 8.57045,1.738636 0,5.993182 -1.51364,-1.534091 0,-4.090909 0.96137,-0.961364 0.55227,0.593182 z m -1.51364,-2.127272 0,-4.09091 1.51364,-1.53409 0,6.013636 -0.55227,0.572727 -0.96137,-0.961363 z m -0.10227,0.490909 0.77727,0.756818 -0.77727,0.756818 -5.33863,0 -0.75682,-0.756818 0.75682,-0.756818 5.33863,0 z" />
        <path
           id="path4340"
           style="font-style:normal;font-variant:normal;font-weight:normal;font-stretch:normal;font-size:22.5px;line-height:125%;font-family:DS-Digital;-inkscape-font-specification:'DS-Digital, Normal';text-align:start;writing-mode:lr-tb;text-anchor:start;fill:#ffff00"
           d="m 122.0934,53.248088 -0.55227,0.572727 -0.96136,-0.961363 0,-4.09091 1.51363,-1.53409 0,6.013636 z m -0.28636,-6.3 -1.51364,1.534091 -4.97045,0 -1.51364,-1.534091 7.99773,0 z m -6.75,5.911364 -0.96136,0.961363 -0.57273,-0.572727 0,-6.013636 1.53409,1.53409 0,4.09091 z m 7.03636,8.120454 -1.51363,-1.534091 0,-4.090909 0.96136,-0.961364 0.55227,0.593182 0,5.993182 z m -0.28636,0.286364 -7.99773,0 1.51364,-1.534091 4.97045,0 1.51364,1.534091 z m -6.75,-1.820455 -1.53409,1.534091 0,-5.993182 0.57273,-0.593182 0.96136,0.961364 0,4.090909 z" />
      </g>
      <g
         id="text4769-3-3-0-9-9"
         style="font-style:normal;font-variant:normal;font-weight:normal;font-stretch:normal;font-size:22.5px;line-height:125%;font-family:DS-Digital;-inkscape-font-specification:'DS-Digital, Normal';text-align:start;letter-spacing:0px;word-spacing:0px;writing-mode:lr-tb;text-anchor:start;fill:#ff0000;fill-opacity:1;stroke:none;stroke-width:1px;stroke-linecap:butt;stroke-linejoin:miter;stroke-opacity:1">
        <path
           id="path4343"
           style="font-style:normal;font-variant:normal;font-weight:normal;font-stretch:normal;font-size:22.5px;line-height:125%;font-family:DS-Digital;-inkscape-font-specification:'DS-Digital, Normal';text-align:start;writing-mode:lr-tb;text-anchor:start;fill:#ff0000"
           d="m 98.490885,103.31176 0,5.99318 -1.534091,-1.53409 0,-4.09091 0.961364,-0.96137 0.572727,0.59319 z m -1.534091,-2.12728 0,-4.090906 1.534091,-1.534091 0,6.013637 -0.572727,0.57273 -0.961364,-0.96137 z" />
        <path
           id="path4345"
           style="font-style:normal;font-variant:normal;font-weight:normal;font-stretch:normal;font-size:22.5px;line-height:125%;font-family:DS-Digital;-inkscape-font-specification:'DS-Digital, Normal';text-align:start;writing-mode:lr-tb;text-anchor:start;fill:#ff0000"
           d="m 110.47501,101.57312 -0.55227,0.57273 -0.96136,-0.96137 0,-4.090906 1.51363,-1.534091 0,6.013637 z m -0.28636,-6.300001 -1.51364,1.534091 -4.97045,0 -1.51364,-1.534091 7.99773,0 z m -6.75,5.911361 -0.96137,0.96137 -0.57272,-0.57273 0,-6.013637 1.53409,1.534091 0,4.090906 z m 7.03636,8.12046 -1.51363,-1.53409 0,-4.09091 0.96136,-0.96137 0.55227,0.59319 0,5.99318 z m -0.28636,0.28636 -7.99773,0 1.51364,-1.53409 4.97045,0 1.51364,1.53409 z m -6.75,-1.82045 -1.53409,1.53409 0,-5.99318 0.57272,-0.59319 0.96137,0.96137 0,4.09091 z" />
        <path
           id="path4347"
           style="font-style:normal;font-variant:normal;font-weight:normal;font-stretch:normal;font-size:22.5px;line-height:125%;font-family:DS-Digital;-inkscape-font-specification:'DS-Digital, Normal';text-align:start;writing-mode:lr-tb;text-anchor:start;fill:#ff0000"
           d="m 121.50528,101.57312 -0.55227,0.57273 -0.96136,-0.96137 0,-4.090906 1.51363,-1.534091 0,6.013637 z m -0.28636,-6.300001 -1.51364,1.534091 -4.97045,0 -1.51364,-1.534091 7.99773,0 z m -6.75,5.911361 -0.96136,0.96137 -0.57273,-0.57273 0,-6.013637 1.53409,1.534091 0,4.090906 z m 7.03636,8.12046 -1.51363,-1.53409 0,-4.09091 0.96136,-0.96137 0.55227,0.59319 0,5.99318 z m -0.28636,0.28636 -7.99773,0 1.51364,-1.53409 4.97045,0 1.51364,1.53409 z m -6.75,-1.82045 -1.53409,1.53409 0,-5.99318 0.57273,-0.59319 0.96136,0.96137 0,4.09091 z" />
      </g>
      <g
         id="text6300"
         style="font-style:normal;font-variant:normal;font-weight:normal;font-stretch:normal;font-size:30px;line-height:125%;font-family:DS-Digital;-inkscape-font-specification:'DS-Digital, Normal';text-align:start;letter-spacing:0px;word-spacing:0px;writing-mode:lr-tb;text-anchor:start;display:inline;fill:#000000;fill-opacity:1;stroke:none;stroke-width:1px;stroke-linecap:butt;stroke-linejoin:miter;stroke-opacity:1">
        <path
           id="path4350"
           style="font-style:normal;font-variant:normal;font-weight:normal;font-stretch:normal;font-size:30px;line-height:125%;font-family:DS-Digital;-inkscape-font-specification:'DS-Digital, Normal';text-align:start;writing-mode:lr-tb;text-anchor:start;fill:#ffffff"
           d="m 96.274659,116.5055 -1.009091,1.03637 -2.181818,0 -1.009091,-1.03637 1.009091,-1.00909 2.181818,0 1.009091,1.00909 z m 0,6.62727 -1.009091,1.0091 -2.181818,0 -1.009091,-1.0091 1.009091,-1.03636 2.181818,0 1.009091,1.03636 z m -5.590909,-1.41818 1.009091,0.98182 1.036363,-0.98182 0,-3.79091 -1.036363,-1.03636 -1.009091,1.03636 0,3.79091 z m 4.936363,0 0,-3.79091 1.036364,-1.03636 1.009091,1.03636 0,3.79091 -1.009091,0.98182 -1.036364,-0.98182 z m 8.536367,5.42728 -1.00909,1.03636 -2.15455,0 -1.036363,-1.03636 1.036363,-1.0091 2.15455,0 1.00909,1.0091 z m 0,6.62727 -1.00909,1.00909 -2.15455,0 -1.036363,-1.00909 1.036363,-1.03637 2.15455,0 1.00909,1.03637 z m -5.590912,-1.41818 1.009091,0.98181 1.036361,-0.98181 0,-3.79091 -1.036361,-1.03637 -1.009091,1.03637 0,3.79091 z m 4.963632,0 0,-3.79091 1.0091,-1.03637 1.00909,1.03637 0,3.79091 -1.00909,0.98181 -1.0091,-0.98181 z m -4.854541,-6.3 -4.936364,8.61818 -0.763636,-2.78182 3.709091,-6.38182 1.718182,-0.49091 0.272727,1.03637 z m -0.354546,-3.43637 3.681817,-6.38182 2.80909,-0.73636 -4.990907,8.56364 -1.036363,0.3 -0.463637,-1.74546 z" />
      </g>
    </g>
  </g>
</svg>
