<?xml version="1.0" encoding="UTF-8" standalone="no"?>
<!-- Generator: Adobe Illustrator 18.0.0, SVG Export Plug-In . SVG Version: 6.00 Build 0)  -->

<svg
   xmlns:dc="http://purl.org/dc/elements/1.1/"
   xmlns:cc="http://creativecommons.org/ns#"
   xmlns:rdf="http://www.w3.org/1999/02/22-rdf-syntax-ns#"
   xmlns:svg="http://www.w3.org/2000/svg"
   xmlns="http://www.w3.org/2000/svg"
   xmlns:sodipodi="http://sodipodi.sourceforge.net/DTD/sodipodi-0.dtd"
   xmlns:inkscape="http://www.inkscape.org/namespaces/inkscape"
   version="1.1"
   id="Capa_1"
   x="0px"
   y="0px"
   width="150"
   height="150"
   viewBox="0 0 150 150"
   enable-background="new 0 0 128 128"
   xml:space="preserve"
   inkscape:version="0.91pre2 r13516"
   sodipodi:docname="ico_volume_full.svg"><metadata
     id="metadata13"><rdf:RDF><cc:Work
         rdf:about=""><dc:format>image/svg+xml</dc:format><dc:type
           rdf:resource="http://purl.org/dc/dcmitype/StillImage" /><dc:title></dc:title></cc:Work></rdf:RDF></metadata><defs
     id="defs11" /><sodipodi:namedview
     pagecolor="#ffffff"
     bordercolor="#666666"
     borderopacity="1"
     objecttolerance="10"
     gridtolerance="10"
     guidetolerance="10"
     inkscape:pageopacity="0"
     inkscape:pageshadow="2"
     inkscape:window-width="1846"
     inkscape:window-height="1058"
     id="namedview9"
     showgrid="false"
     inkscape:zoom="1.84375"
     inkscape:cx="64"
     inkscape:cy="64"
     inkscape:window-x="66"
     inkscape:window-y="-8"
     inkscape:window-maximized="1"
     inkscape:current-layer="Capa_1" /><path
     d="m 55.484746,35.10678 -21.9,16.4 -20,0 c -3.3,0 -6.0000002,2.7 -6.0000002,6 l 0,41.8 c 0,3.3 2.7000002,6 6.0000002,6 l 20,0 21.9,16.4 c 4,3 9.6,0.2 9.6,-4.8 l 0,-77 c 0,-5 -5.7,-7.8 -9.6,-4.8 z"
     id="path3"
     inkscape:connector-curvature="0"
     style="fill:#ffffff" /><path
     d="m 84.884746,44.90678 c -2.7,-2.7 -7.2,-2.7 -9.9,0 -2.7,2.7 -2.7,7.2 0,9.9 13,13 13,34.1 0,47.1 -2.7,2.7 -2.7,7.2 0,9.9 1.4,1.4 3.2,2 4.9,2 1.7,0 3.6,-0.7 4.9,-2.1 18.600004,-18.3 18.600004,-48.3 0.1,-66.8 z"
     id="path5"
     inkscape:connector-curvature="0"
     style="fill:#ffffff" /><path
     d="m 92.684746,29.20678 c -2.7,2.7 -2.7,7.2 0,9.9 10.500004,10.5 16.300004,24.4 16.300004,39.3 0,14.9 -5.8,28.8 -16.300004,39.3 -2.7,2.7 -2.7,7.2 0,9.9 1.4,1.4 3.2,2.1 4.9,2.1 1.8,0 3.600004,-0.7 4.900004,-2 13.1,-13.1 20.4,-30.6 20.4,-49.2 0,-18.6 -7.2,-36 -20.4,-49.2 -2.600004,-2.8 -7.000004,-2.8 -9.800004,-0.1 z"
     id="path7"
     inkscape:connector-curvature="0"
     style="fill:#ffffff" /><path
     inkscape:connector-curvature="0"
     id="path4142"
     d="m 116.58324,17.126202 c -2.74544,3.22855 -2.74544,8.609466 0,11.838016 10.67672,12.555472 16.57435,29.176524 16.57435,46.993336 0,17.816806 -5.89763,34.437866 -16.57435,46.993336 -2.74544,3.22855 -2.74544,8.60947 0,11.83802 1.42357,1.67406 3.25386,2.51109 4.98247,2.51109 1.8303,0 3.66059,-0.83703 4.98247,-2.39152 13.32049,-15.66444 20.74335,-36.59023 20.74335,-58.83135 0,-22.241121 -7.32118,-43.047331 -20.74335,-58.831352 -2.64376,-3.348126 -7.11781,-3.348126 -9.96494,-0.119576 z"
     style="fill:#ffffff" /></svg>