<?xml version="1.0" encoding="UTF-8" standalone="no"?>
<!-- Generator: Adobe Illustrator 16.0.0, SVG Export Plug-In . SVG Version: 6.00 Build 0)  -->

<svg
   xmlns:dc="http://purl.org/dc/elements/1.1/"
   xmlns:cc="http://creativecommons.org/ns#"
   xmlns:rdf="http://www.w3.org/1999/02/22-rdf-syntax-ns#"
   xmlns:svg="http://www.w3.org/2000/svg"
   xmlns="http://www.w3.org/2000/svg"
   xmlns:sodipodi="http://sodipodi.sourceforge.net/DTD/sodipodi-0.dtd"
   xmlns:inkscape="http://www.inkscape.org/namespaces/inkscape"
   version="1.1"
   id="Layer_1"
   x="0px"
   y="0px"
   width="512px"
   height="512px"
   viewBox="0 0 512 512"
   enable-background="new 0 0 512 512"
   xml:space="preserve"
   inkscape:version="0.91pre2 r13516"
   sodipodi:docname="ico_timer.svg"><metadata
     id="metadata9"><rdf:RDF><cc:Work
         rdf:about=""><dc:format>image/svg+xml</dc:format><dc:type
           rdf:resource="http://purl.org/dc/dcmitype/StillImage" /><dc:title></dc:title></cc:Work></rdf:RDF></metadata><defs
     id="defs7" /><sodipodi:namedview
     pagecolor="#ffffff"
     bordercolor="#666666"
     borderopacity="1"
     objecttolerance="10"
     gridtolerance="10"
     guidetolerance="10"
     inkscape:pageopacity="0"
     inkscape:pageshadow="2"
     inkscape:window-width="852"
     inkscape:window-height="480"
     id="namedview5"
     showgrid="false"
     inkscape:zoom="0.4609375"
     inkscape:cx="256"
     inkscape:cy="256"
     inkscape:window-x="555"
     inkscape:window-y="210"
     inkscape:window-maximized="0"
     inkscape:current-layer="Layer_1" /><path
     d="M64,80V16c0-8.844,7.156-16,16-16s16,7.156,16,16v64c0,8.844-7.156,16-16,16S64,88.844,64,80z M336,96  c8.844,0,16-7.156,16-16V16c0-8.844-7.156-16-16-16s-16,7.156-16,16v64C320,88.844,327.156,96,336,96z M512,384  c0,70.688-57.313,128-128,128s-128-57.313-128-128s57.313-128,128-128S512,313.313,512,384z M480,384c0-52.938-43.063-96-96-96  s-96,43.063-96,96s43.063,96,96,96S480,436.938,480,384z M128,192H64v64h64V192z M64,352h64v-64H64V352z M160,256h64v-64h-64V256z   M160,352h64v-64h-64V352z M32,380.813V160h352v64h32V99.188C416,79.75,400.5,64,381.344,64H368v16c0,17.625-14.344,32-32,32  s-32-14.375-32-32V64H112v16c0,17.625-14.344,32-32,32S48,97.625,48,80V64H34.672C15.516,64,0,79.75,0,99.188v281.625  C0,400.188,15.516,416,34.672,416H224v-32H34.672C33.219,384,32,382.5,32,380.813z M320,256v-64h-64v64H320z M432,384h-48v-48  c0-8.844-7.156-16-16-16s-16,7.156-16,16v64c0,8.844,7.156,16,16,16h64c8.844,0,16-7.156,16-16S440.844,384,432,384z"
     id="path3"
     style="fill:#ececec" /></svg>