<?xml version="1.0" encoding="UTF-8" standalone="no"?>
<!-- Generator: Adobe Illustrator 18.0.0, SVG Export Plug-In . SVG Version: 6.00 Build 0)  -->

<svg
   xmlns:dc="http://purl.org/dc/elements/1.1/"
   xmlns:cc="http://creativecommons.org/ns#"
   xmlns:rdf="http://www.w3.org/1999/02/22-rdf-syntax-ns#"
   xmlns:svg="http://www.w3.org/2000/svg"
   xmlns="http://www.w3.org/2000/svg"
   xmlns:sodipodi="http://sodipodi.sourceforge.net/DTD/sodipodi-0.dtd"
   xmlns:inkscape="http://www.inkscape.org/namespaces/inkscape"
   version="1.1"
   id="Capa_1"
   x="0px"
   y="0px"
   width="150"
   height="150"
   viewBox="0 0 150 150"
   enable-background="new 0 0 128 128"
   xml:space="preserve"
   inkscape:version="0.91pre2 r13516"
   sodipodi:docname="ico_volume_low.svg"><metadata
     id="metadata13"><rdf:RDF><cc:Work
         rdf:about=""><dc:format>image/svg+xml</dc:format><dc:type
           rdf:resource="http://purl.org/dc/dcmitype/StillImage" /><dc:title></dc:title></cc:Work></rdf:RDF></metadata><defs
     id="defs11" /><sodipodi:namedview
     pagecolor="#ffffff"
     bordercolor="#666666"
     borderopacity="1"
     objecttolerance="10"
     gridtolerance="10"
     guidetolerance="10"
     inkscape:pageopacity="0"
     inkscape:pageshadow="2"
     inkscape:window-width="1846"
     inkscape:window-height="1058"
     id="namedview9"
     showgrid="false"
     inkscape:zoom="1.84375"
     inkscape:cx="64"
     inkscape:cy="64"
     inkscape:window-x="66"
     inkscape:window-y="-8"
     inkscape:window-maximized="1"
     inkscape:current-layer="Capa_1" /><path
     d="m 55.484746,35.10678 -21.9,16.4 -20,0 c -3.3,0 -6.0000002,2.7 -6.0000002,6 l 0,41.8 c 0,3.3 2.7000002,6 6.0000002,6 l 20,0 21.9,16.4 c 4,3 9.6,0.2 9.6,-4.8 l 0,-77 c 0,-5 -5.7,-7.8 -9.6,-4.8 z"
     id="path3"
     inkscape:connector-curvature="0"
     style="fill:#ffffff" /><path
     d="m 84.884746,44.90678 c -2.7,-2.7 -7.2,-2.7 -9.9,0 -2.7,2.7 -2.7,7.2 0,9.9 13,13 13,34.1 0,47.1 -2.7,2.7 -2.7,7.2 0,9.9 1.4,1.4 3.2,2 4.9,2 1.7,0 3.6,-0.7 4.9,-2.1 18.600004,-18.3 18.600004,-48.3 0.1,-66.8 z"
     id="path5"
     inkscape:connector-curvature="0"
     style="fill:#ffffff" /></svg>