/* XPM */
static char * ddOn_xpm[] = {
"45 28 3 1",
" 	c None",
".	c #0506AB",
"+	c #797979",
".............................................",
".............................................",
".............................................",
"....++++++++++++++++.....++++++++++++++++....",
"...++++++++++++++++++...++++++++++++++++++...",
"...++++++++++++++++++...++++++++++++++++++...",
"...+++++....+++++++++...+++++++++....+++++...",
"...+++++......+++++++...+++++++......+++++...",
"...+++++.......++++++...++++++.......+++++...",
"...+++++........+++++...+++++........+++++...",
"...+++++.........++++...++++.........+++++...",
"...+++++..........+++...+++..........+++++...",
"...+++++..........+++...+++..........+++++...",
"...+++++...........++...++...........+++++...",
"...+++++...........++...++...........+++++...",
"...+++++..........+++...+++..........+++++...",
"...+++++..........+++...+++..........+++++...",
"...+++++.........++++...++++.........+++++...",
"...+++++........+++++...+++++........+++++...",
"...+++++.......++++++...++++++.......+++++...",
"...+++++......+++++++...+++++++......+++++...",
"...+++++....+++++++++...+++++++++....+++++...",
"...++++++++++++++++++...++++++++++++++++++...",
"...++++++++++++++++++...++++++++++++++++++...",
"....++++++++++++++++.....++++++++++++++++....",
".............................................",
".............................................",
"............................................."};
