/* XPM */
static char * f_has_vps_xpm[] = {
"45 36 3 1",
" 	c None",
".	c #0506AB",
"+	c #797979",
".............................................",
".............................................",
".............................................",
".............................................",
".....++++++++++++++++++++++++++++++++++++....",
"....++++++++++++++++++++++++++++++++++++++...",
"....++++++++++++++++++++++++++++++++++++++...",
"....++++++++++++++++++++++++++++++++++++++...",
"....++++++++++++++++++++++++++++++++++++++...",
"....++++++++++++++++++++++++++++++++++++++...",
"....++++++.++++.++++.....++++++.....++++++...",
"....+++++...++...++.......++++.......+++++...",
"....+++++...++...++.......++++.......+++++...",
"....+++++...++...++........++........+++++...",
"....+++++...++...++........++.......++++++...",
"....+++++...++...++...++...++...++++++++++...",
"....+++++...++...++........++......+++++++...",
"....+++++...++...++........++.......++++++...",
"....+++++...++...++.......++++......++++++...",
"....+++++...++...++.......++++.......+++++...",
"....+++++........++......++++++......+++++...",
"....+++++........++...++++++++++++...+++++...",
"....++++++......+++...++++++++.......+++++...",
"....++++++......+++...+++++++........+++++...",
"....+++++++....++++...+++++++.......++++++...",
"....++++++++..+++++...+++++++.......++++++...",
"....++++++++..++++++.+++++++++.....+++++++...",
"....++++++++++++++++++++++++++++++++++++++...",
"....++++++++++++++++++++++++++++++++++++++...",
"....++++++++++++++++++++++++++++++++++++++...",
"....++++++++++++++++++++++++++++++++++++++...",
"....++++++++++++++++++++++++++++++++++++++...",
".....++++++++++++++++++++++++++++++++++++....",
".............................................",
".............................................",
"............................................."};
