/* XPM */
static char * vdrlogosmall_xpm[] = {
"80 78 17 1",
" 	c None",
".	c #000200",
"+	c #0C0F0B",
"@	c #161715",
"#	c #232422",
"$	c #2E2F2D",
"%	c #3A3C39",
"&	c #474946",
"*	c #545653",
"=	c #626461",
"-	c #6E706D",
";	c #7A7C79",
">	c #888A87",
",	c #959794",
"'	c #A2A4A1",
")	c #B2B4B1",
"!	c #C3C6C2",
"................................................................................",
"................................................................................",
"................................................................................",
"................................................................................",
"................................................................................",
"................................................................................",
"................................................................................",
"................................................................................",
"................................................................................",
"................................................................................",
"................................................................................",
"................................................................................",
"................................................................................",
"................................................................................",
"................................................................................",
"................................................................................",
"................................................................................",
"................................................................................",
"................................................................................",
"...+####+....................@##$$$$$$$##@@#######$$$$$$$$$$$##+.+..............",
"...+!!!!@@@+...............='!!!!!!!!!!!))';*!!!!!!!!!!!!!!!!!)),&@@+...........",
"....>)))-$#@+............+>)))))))))))))))))'*,!))))))))))))))))))>#@@+.........",
"....%))))&%#@...........+>)))))!!!!!!!!!))))));,!!!!!!!!!!!!!!))'));$#@+........",
".....',,'=*%#+..........=,''!';;;;;;;;;>)!!''''>-----------=--)!',''-%#@........",
"....+=,>,>=&$@.........@>,,!=->,,>>;;;;;;;>!,,,>>>>>;;;---------)>,,,*%#@.......",
"....+$,>>,-*%#+........%;>)=->>,,>;-======--'>>>>,>;-====***====-,>>,;*%@+......",
".....@;;;-;=&#@........*;;,=-;;,>;=*&&&&&&&*=,;;;>;-*&%%%%%%%%%&*;;;>>=&$@......",
".....+%;-=>-*$@.......@==,-=---,>-*%$#####$$&---=>;=&$##########$*==;>;*$@+.....",
".....+#;=*-;=&#+......$==';=*==,>=&$@@@@@@@##&-*=-;=&$@@@+++++@@#&==;>;=%@+.....",
"......@****;=&$+......%&*;;****,>=%$@......+@#*&&&>-&$@+.......+@&*&>>;=%@+.....",
"......@#*&%=-*%#+....+%%;=;&&&&,>-%#@.......+@&&&%;;*%#+......+.+&%%,>;=%@+.....",
"......+@*%%%-=%#+....+%%>->%%%%,;=%#+........+$%%%;;=%$@@+++...#%%%>>>;*%@+.....",
".......+%$$$--&$@....@$&--;%$$$>>=%#+........+#$$#;#@@@@@@@@@#$$#$;>>>-*$@......",
".......+#$@@%-*%#+...@@==;;$#@#>;=%#+.........@@#@;#@@#@@@#@#@@#*>;>>;=%#+......",
"........@$@@@;=&#@...@@--;-@@@@>;=%#+.........++@@;#@####@@@@$>,;;;>;=&$@.......",
"........@#@@@*-*$@+.@#%=;;=@@@#>>-%#+.........+@@@-,,>>>>;%#@+$>>>;;=&%#@.......",
"........+@$##$-*%#@.##*-;-*####;;=%#+..........###;,,>;;;;;&####,>;=&%#@........",
".........@$##@-=&#@+##=-;=&#@@#;>=%#+.........+###>,>;-==--;%@@@#>;*%#@+........",
".........+#$##*-*%@##*=;-*%###$>;-%#+........+@#$&>,;=*&&&**=%###%-*%#@.........",
"..........@%$$%-=&@%$=-;=*%#$$%>;=%#@........+$%$->>-*%$##$%&*%$%$**%#@.........",
"..........@$&%%-=&$%*---=%$%%%&>;=%#+........#%%&;>;=&$@@@@#$%*%&%%=*$@+........",
"..........+#*&&-;&&&;=;-*$#%&&&>;=%#+.......+%&&;>>-*%#@...+@#&*&&&*=&#@........",
"...........@&**=;%**--;=&$#&***>>=%$@......+&**=;>>-&$@......@$*****=*%#+.......",
"...........@$====*=-;;-*%#@&===>>-&$@+.++@$*===,;>;=%#@......+@%-=*===&$@+......",
"...........+@-=-==-,;;-&%@@*==-****&&&*&*--=--';>;-&$@........@#&;==-==&#@......",
"............@%;;;;;,>;=&#@+*;;-;-;;;;;;;;;;;>';>>-*%#+.........@$-;;;--*%@+.....",
"............+#>>>>',>;*%#@+=>>>>>>>>;>>>>>');;>>-=%$@+.........+@%,>>>;=&$@.....",
".............@>!!!),>-&$@+.;!!!!!!!!!!)'>>;>>;;-=&$@+...........@#*!!!!>*%@+....",
".............@@%=->>;=%#+..@$&=>>,,>>>>>;>>;;-=*&$@@+...........@@#&=-;-*%#@....",
"...+%@*+*.;-%@>-==>;;&$#&-=@&*=;>>>;>;;;;>>;=>-&%--@+--@+;=$.;-$@>=&*,;-*%#@....",
"....;*@@-+-.>@,-**>*,%$@*.=$**&>>=;'--==-,>**>-$*#@@%@+=@>-%+;.;@'-%&,>=&%#@....",
"....*;+#-+>&;#'&%&,*>%#@=$>#**&->=;-'**&==;&&-&$&*;$%-&&#;**@>&-#'%%*>-*%$#@....",
".....@@@#@%%##%&%%%&$##@#$@#$$$&&%%&&%%%$$#%$&&$#%$##$%##$#%#%%##%%%%%%%%$#@....",
".....+@@@@#####$$$$####@@@@######$$$$$###@#########################$$$%$$#@@....",
"......@@@@@@#########@@@@@@@@@@@@#####@@@@@@######@@@@@@#################@@.....",
".......+@@@@@@@@@@@@@@@+++@@@@@@@@@@@@@++++@@@@@@@@@@@@@@@@@@@@@@@@@@@@@@@+.....",
"...........++++++++++.......++++++++++.......++++++++...+++++++++++++++++.......",
"................................................................................",
"................................................................................",
"................................................................................",
"................................................................................",
"................................................................................",
"................................................................................",
"................................................................................",
"................................................................................",
"................................................................................",
"................................................................................",
"................................................................................",
"................................................................................",
"................................................................................",
"................................................................................",
"................................................................................",
"................................................................................",
"................................................................................",
"................................................................................",
"................................................................................",
"................................................................................",
"................................................................................"};
