<?xml version="1.0" encoding="UTF-8" standalone="no"?>
<!-- Created with Inkscape (http://www.inkscape.org/) -->

<svg
   xmlns:dc="http://purl.org/dc/elements/1.1/"
   xmlns:cc="http://creativecommons.org/ns#"
   xmlns:rdf="http://www.w3.org/1999/02/22-rdf-syntax-ns#"
   xmlns:svg="http://www.w3.org/2000/svg"
   xmlns="http://www.w3.org/2000/svg"
   xmlns:xlink="http://www.w3.org/1999/xlink"
   xmlns:sodipodi="http://sodipodi.sourceforge.net/DTD/sodipodi-0.dtd"
   xmlns:inkscape="http://www.inkscape.org/namespaces/inkscape"
   width="150"
   height="50"
   id="svg2"
   version="1.1"
   inkscape:version="0.91pre3 r13670"
   viewBox="0 0 150 50.000001"
   sodipodi:docname="ico_hd1080i.svg">
  <defs
     id="defs4">
    <linearGradient
       inkscape:collect="always"
       id="linearGradient4172">
      <stop
         style="stop-color:#ffffff;stop-opacity:1;"
         offset="0"
         id="stop4174" />
      <stop
         style="stop-color:#999999;stop-opacity:1"
         offset="1"
         id="stop4176" />
    </linearGradient>
    <linearGradient
       inkscape:collect="always"
       id="linearGradient4162">
      <stop
         style="stop-color:#c3c3c3;stop-opacity:1"
         offset="0"
         id="stop4164" />
      <stop
         style="stop-color:#e71f1f;stop-opacity:1"
         offset="1"
         id="stop4166" />
    </linearGradient>
    <linearGradient
       inkscape:collect="always"
       id="linearGradient4192">
      <stop
         style="stop-color:#00284a;stop-opacity:1;"
         offset="0"
         id="stop4194" />
      <stop
         style="stop-color:#000000;stop-opacity:1"
         offset="1"
         id="stop4196" />
    </linearGradient>
    <linearGradient
       inkscape:collect="always"
       xlink:href="#linearGradient4192"
       id="linearGradient4198"
       x1="113.87164"
       y1="1049.3083"
       x2="137.99171"
       y2="963.38702"
       gradientUnits="userSpaceOnUse"
       gradientTransform="translate(4.4999999e-6,-4.6e-5)" />
    <linearGradient
       inkscape:collect="always"
       xlink:href="#linearGradient4162"
       id="linearGradient4168"
       x1="35.610756"
       y1="1064.6293"
       x2="103.83022"
       y2="996.30615"
       gradientUnits="userSpaceOnUse" />
    <linearGradient
       inkscape:collect="always"
       xlink:href="#linearGradient4172"
       id="linearGradient4178"
       x1="89.026787"
       y1="989.05988"
       x2="75.258934"
       y2="1062.7659"
       gradientUnits="userSpaceOnUse" />
  </defs>
  <sodipodi:namedview
     id="base"
     pagecolor="#ffffff"
     bordercolor="#666666"
     borderopacity="1.0"
     inkscape:pageopacity="0.0"
     inkscape:pageshadow="2"
     inkscape:zoom="4.83"
     inkscape:cx="34.416517"
     inkscape:cy="55.966018"
     inkscape:document-units="px"
     inkscape:current-layer="layer1"
     showgrid="false"
     units="px"
     inkscape:window-width="1531"
     inkscape:window-height="878"
     inkscape:window-x="61"
     inkscape:window-y="-8"
     inkscape:window-maximized="1" />
  <metadata
     id="metadata7">
    <rdf:RDF>
      <cc:Work
         rdf:about="">
        <dc:format>image/svg+xml</dc:format>
        <dc:type
           rdf:resource="http://purl.org/dc/dcmitype/StillImage" />
        <dc:title />
      </cc:Work>
    </rdf:RDF>
  </metadata>
  <g
     inkscape:label="Ebene 1"
     inkscape:groupmode="layer"
     id="layer1"
     transform="translate(0,-1002.3622)">
    <path
       inkscape:connector-curvature="0"
       style="opacity:1;fill:url(#linearGradient4198);fill-opacity:1;stroke:url(#linearGradient4168);stroke-width:0;stroke-linecap:square;stroke-linejoin:bevel;stroke-miterlimit:4;stroke-dasharray:none;stroke-dashoffset:0;stroke-opacity:1"
       d="m 3.4999999e-6,1002.3622 0,50 L 150,1052.3622 l 0,-50 -149.9999965000001,0 z m 5.0000000000001,5 49.9999985,0 0,40 -49.9999985,0 0,-40 z"
       id="rect4139" />
    <rect
       style="opacity:1;fill:none;fill-opacity:1;stroke:url(#linearGradient4178);stroke-width:1.972;stroke-linecap:square;stroke-linejoin:bevel;stroke-miterlimit:4;stroke-dasharray:none;stroke-dashoffset:0;stroke-opacity:1"
       id="rect4162"
       width="148.02827"
       height="48.028259"
       x="0.98586887"
       y="1003.3481"
       ry="0.6197632" />
    <g
       style="font-style:normal;font-variant:normal;font-weight:normal;font-stretch:normal;font-size:35px;line-height:125%;font-family:'Source Sans Pro';-inkscape-font-specification:'Source Sans Pro, Normal';text-align:start;letter-spacing:0px;word-spacing:0px;writing-mode:lr-tb;text-anchor:start;fill:#ffffff;fill-opacity:1;stroke:none;stroke-width:1px;stroke-linecap:butt;stroke-linejoin:miter;stroke-opacity:1"
       id="text4180">
      <path
         d="m 65.441323,1039.2852 12.6,0 0,-2.38 -4.62,0 0,-19.95 -2.205,0 c -1.225,0.735 -2.695,1.295 -4.725,1.645 l 0,1.855 4.06,0 0,16.45 -5.11,0 0,2.38 z"
         style=""
         id="path4153" />
      <path
         d="m 88.754604,1039.7052 c 4.445,0 7.14,-4.165 7.14,-11.655 0,-7.49 -2.695,-11.515 -7.14,-11.515 -4.48,0 -7.175,4.025 -7.175,11.515 0,7.49 2.695,11.655 7.175,11.655 z m 0,-2.31 c -2.625,0 -4.375,-2.8 -4.375,-9.345 0,-6.545 1.75,-9.205 4.375,-9.205 2.59,0 4.34,2.66 4.34,9.205 0,6.545 -1.75,9.345 -4.34,9.345 z"
         style=""
         id="path4155" />
      <path
         d="m 101.42789,1033.3002 c 0,-2.03 1.33,-3.675 3.115,-4.865 3.22,1.295 6.055,2.345 6.055,5.215 0,2.31 -1.785,3.92 -4.375,3.92 -2.73,0 -4.795,-1.785 -4.795,-4.27 z m 6.3,-6.195 c -2.695,-1.05 -5.145,-2.17 -5.145,-4.83 0,-2.17 1.54,-3.605 3.605,-3.605 2.45,0 3.885,1.75 3.885,3.955 0,1.645 -0.84,3.15 -2.345,4.48 z m -8.890005,6.475 c 0,3.535 3.115005,6.125 7.315005,6.125 4.34,0 7.21,-2.625 7.21,-5.95 0,-3.01 -1.89,-4.585 -3.885,-5.74 l 0,-0.14 c 1.365,-1.05 3.08,-3.045 3.08,-5.39 0,-3.465 -2.415,-5.95 -6.3,-5.95 -3.605,0 -6.335005,2.31 -6.335005,5.74 0,2.345 1.470005,3.99 3.115005,5.145 l 0,0.14 c -2.1,1.12 -4.200005,3.115 -4.200005,6.02 z"
         style=""
         id="path4157" />
      <path
         d="m 123.48117,1039.7052 c 4.445,0 7.14,-4.165 7.14,-11.655 0,-7.49 -2.695,-11.515 -7.14,-11.515 -4.48,0 -7.175,4.025 -7.175,11.515 0,7.49 2.695,11.655 7.175,11.655 z m 0,-2.31 c -2.625,0 -4.375,-2.8 -4.375,-9.345 0,-6.545 1.75,-9.205 4.375,-9.205 2.59,0 4.34,2.66 4.34,9.205 0,6.545 -1.75,9.345 -4.34,9.345 z"
         style=""
         id="path4159" />
      <path
         d="m 136.46945,1018.7752 c 1.12,0 1.995,-0.77 1.995,-1.855 0,-1.12 -0.875,-1.855 -1.995,-1.855 -1.12,0 -1.995,0.735 -1.995,1.855 0,1.085 0.875,1.855 1.995,1.855 z m -1.47,20.51 2.87,0 0,-17.01 -2.87,0 0,17.01 z"
         style=""
         id="path4161" />
    </g>
    <g
       style="font-style:italic;font-variant:normal;font-weight:600;font-stretch:normal;font-size:35px;line-height:125%;font-family:'Source Sans Pro';-inkscape-font-specification:'Source Sans Pro, Semi-Bold Italic';text-align:start;letter-spacing:0px;word-spacing:0px;writing-mode:lr-tb;text-anchor:start;fill:#000000;fill-opacity:1;stroke:none;stroke-width:1px;stroke-linecap:butt;stroke-linejoin:miter;stroke-opacity:1"
       id="text4186">
      <path
         d="m 9.1945344,1039.5256 3.7799996,0 2.03,-10.325 9.065,0 -2.1,10.325 3.78,0 4.585,-22.89 -3.78,0 -1.855,9.275 -9.065,0 1.89,-9.275 -3.78,0 -4.5499996,22.89 z"
         style="font-style:italic;font-variant:normal;font-weight:600;font-stretch:normal;font-size:35px;line-height:125%;font-family:'Source Sans Pro';-inkscape-font-specification:'Source Sans Pro, Semi-Bold Italic';text-align:start;writing-mode:lr-tb;text-anchor:start;fill:#ffffff"
         id="path4164" />
      <path
         d="m 31.54805,1039.5256 6.65,0 c 7.525,0 12.46,-5.25 12.46,-13.93 0,-5.81 -3.535,-8.96 -9.905,-8.96 l -4.655,0 -4.55,22.89 z m 4.375,-3.045 3.325,-16.8 1.4,0 c 3.885,0 6.16,2.1 6.16,6.16 0,6.755 -3.535,10.64 -8.68,10.64 l -2.205,0 z"
         style="font-style:italic;font-variant:normal;font-weight:600;font-stretch:normal;font-size:35px;line-height:125%;font-family:'Source Sans Pro';-inkscape-font-specification:'Source Sans Pro, Semi-Bold Italic';text-align:start;writing-mode:lr-tb;text-anchor:start;fill:#ffffff"
         id="path4166" />
    </g>
  </g>
</svg>
