<?xml version="1.0" encoding="UTF-8" standalone="no"?>
<!-- Generator: Adobe Illustrator 15.0.0, SVG Export Plug-In . SVG Version: 6.00 Build 0)  -->

<svg
   xmlns:dc="http://purl.org/dc/elements/1.1/"
   xmlns:cc="http://creativecommons.org/ns#"
   xmlns:rdf="http://www.w3.org/1999/02/22-rdf-syntax-ns#"
   xmlns:svg="http://www.w3.org/2000/svg"
   xmlns="http://www.w3.org/2000/svg"
   xmlns:sodipodi="http://sodipodi.sourceforge.net/DTD/sodipodi-0.dtd"
   xmlns:inkscape="http://www.inkscape.org/namespaces/inkscape"
   version="1.1"
   id="Layer_1"
   x="0px"
   y="0px"
   width="64px"
   height="64px"
   viewBox="0 0 64 64"
   enable-background="new 0 0 64 64"
   xml:space="preserve"
   inkscape:version="0.91pre2 r13516"
   sodipodi:docname="ico_timer_inactive.svg"><metadata
     id="metadata11"><rdf:RDF><cc:Work
         rdf:about=""><dc:format>image/svg+xml</dc:format><dc:type
           rdf:resource="http://purl.org/dc/dcmitype/StillImage" /><dc:title></dc:title></cc:Work></rdf:RDF></metadata><defs
     id="defs9" /><sodipodi:namedview
     pagecolor="#ffffff"
     bordercolor="#666666"
     borderopacity="1"
     objecttolerance="10"
     gridtolerance="10"
     guidetolerance="10"
     inkscape:pageopacity="0"
     inkscape:pageshadow="2"
     inkscape:window-width="1846"
     inkscape:window-height="1058"
     id="namedview7"
     showgrid="false"
     inkscape:zoom="3.6875"
     inkscape:cx="32"
     inkscape:cy="32"
     inkscape:window-x="66"
     inkscape:window-y="-8"
     inkscape:window-maximized="1"
     inkscape:current-layer="Layer_1" /><g
     id="g3"
     style="fill:#800000"><path
       fill="#231F20"
       d="M55.71,29.883c0.089-0.149,0.206-0.31,0.336-0.451c0.024-0.03,2.384-3.062,1.586-6.226   c-0.395-1.566-1.478-2.846-3.217-3.807c0.438-1.075,1.002-3.068,0.271-5.023c-0.596-1.592-1.905-2.803-3.892-3.598   c-0.206-1.243-0.917-4.161-3.184-6.056c-1.332-1.114-2.979-1.678-4.896-1.678c-0.303,0-0.603,0.014-0.837,0.042   c-0.412-0.05-2.626-0.289-5.701-0.289c-5.128,0-12.479,0.65-18.352,3.739l-4.07,1.208H7.932H5.846v1.765V33.4h2.065l6.229,0.094   c1.83,1.133,3.523,2.616,5.167,4.058c1.792,1.573,3.647,3.201,5.789,4.461l0.179,0.073c0.018,0.006,1.86,0.615,5.648,4.752   c2.987,4.58,2.797,7.852,2.683,9.814c-0.03,0.524-0.06,1.02-0.012,1.433c0.155,1.412,0.696,2.364,1.604,2.831   c0.37,0.191,0.791,0.287,1.249,0.287c0.728,0,1.553-0.247,2.394-0.72c4.233-2.377,4.103-6.258,3.332-10.099l-0.073-0.358   c-0.368-1.809-1.135-5.575-0.302-7.411c1.184-2.607,2.543-3.143,4.219-3.143c0.654,0,1.385,0.084,2.174,0.175   c0.85,0.098,1.729,0.196,2.668,0.196c0.861,0,1.637-0.085,2.367-0.257c4.1-0.968,4.943-3.16,4.928-4.834   C58.136,32.673,56.743,30.692,55.71,29.883z"
       id="path5"
       style="fill:#800000" /></g></svg>