<?xml version="1.0" encoding="UTF-8" standalone="no"?>
<!-- Created with Inkscape (http://www.inkscape.org/) -->

<svg
   xmlns:dc="http://purl.org/dc/elements/1.1/"
   xmlns:cc="http://creativecommons.org/ns#"
   xmlns:rdf="http://www.w3.org/1999/02/22-rdf-syntax-ns#"
   xmlns:svg="http://www.w3.org/2000/svg"
   xmlns="http://www.w3.org/2000/svg"
   xmlns:xlink="http://www.w3.org/1999/xlink"
   xmlns:sodipodi="http://sodipodi.sourceforge.net/DTD/sodipodi-0.dtd"
   xmlns:inkscape="http://www.inkscape.org/namespaces/inkscape"
   width="50"
   height="50"
   id="svg4557"
   version="1.1"
   inkscape:version="0.91pre3 r13670"
   viewBox="0 0 49.999999 50.000002"
   sodipodi:docname="ico_videotext.svg">
  <defs
     id="defs4559">
    <linearGradient
       inkscape:collect="always"
       id="linearGradient4144">
      <stop
         style="stop-color:#ffffff;stop-opacity:1;"
         offset="0"
         id="stop4146" />
      <stop
         style="stop-color:#999999;stop-opacity:1"
         offset="1"
         id="stop4148" />
    </linearGradient>
    <linearGradient
       inkscape:collect="always"
       id="linearGradient5131">
      <stop
         style="stop-color:#00284a;stop-opacity:1;"
         offset="0"
         id="stop5133" />
      <stop
         style="stop-color:#000000;stop-opacity:1"
         offset="1"
         id="stop5135" />
    </linearGradient>
    <linearGradient
       inkscape:collect="always"
       xlink:href="#linearGradient5131"
       id="linearGradient5137"
       x1="25.232635"
       y1="1025.8571"
       x2="48.598396"
       y2="1002.0261"
       gradientUnits="userSpaceOnUse" />
    <linearGradient
       inkscape:collect="always"
       xlink:href="#linearGradient4144"
       id="linearGradient4150"
       x1="47.160355"
       y1="1007.4194"
       x2="-9.0758705"
       y2="1061.2273"
       gradientUnits="userSpaceOnUse" />
  </defs>
  <sodipodi:namedview
     id="base"
     pagecolor="#ffffff"
     bordercolor="#666666"
     borderopacity="1.0"
     inkscape:pageopacity="0.0"
     inkscape:pageshadow="2"
     inkscape:zoom="7.9727988"
     inkscape:cx="17.389319"
     inkscape:cy="26.264818"
     inkscape:document-units="px"
     inkscape:current-layer="layer1"
     showgrid="false"
     units="px"
     inkscape:window-width="1531"
     inkscape:window-height="878"
     inkscape:window-x="61"
     inkscape:window-y="-8"
     inkscape:window-maximized="1" />
  <metadata
     id="metadata4562">
    <rdf:RDF>
      <cc:Work
         rdf:about="">
        <dc:format>image/svg+xml</dc:format>
        <dc:type
           rdf:resource="http://purl.org/dc/dcmitype/StillImage" />
        <dc:title />
      </cc:Work>
    </rdf:RDF>
  </metadata>
  <g
     inkscape:label="Ebene 1"
     inkscape:groupmode="layer"
     id="layer1"
     transform="translate(0,-1002.3622)">
    <rect
       style="opacity:1;fill:url(#linearGradient5137);fill-opacity:1;stroke:url(#linearGradient4150);stroke-width:1.94959891;stroke-linecap:square;stroke-linejoin:bevel;stroke-miterlimit:4;stroke-dasharray:none;stroke-dashoffset:0;stroke-opacity:1"
       id="rect5113"
       width="48.050404"
       height="48.050404"
       x="0.97479796"
       y="1003.337"
       ry="0.60414463" />
    <g
       style="font-style:normal;font-variant:normal;font-weight:normal;font-stretch:normal;font-size:20px;line-height:125%;font-family:DS-Digital;-inkscape-font-specification:'DS-Digital, Normal';text-align:start;letter-spacing:0px;word-spacing:0px;writing-mode:lr-tb;text-anchor:start;fill:#ffffff;fill-opacity:1;stroke:none;stroke-width:1px;stroke-linecap:butt;stroke-linejoin:miter;stroke-opacity:1"
       id="text5105">
      <path
         d="m 11.844751,1014.0037 -0.490909,0.5091 -0.854545,-0.8545 0,-3.891 1.345454,-1.3636 0,5.6 z m -0.6,2 -4.4545454,4.4546 -0.9636363,0 0,-0.9637 4.4545457,-4.4727 1.072727,-0.018 -0.109091,1 z m -5.6545454,-2.3454 -0.8545454,0.8545 -0.5090909,-0.5091 0,-5.6 1.3636363,1.3636 0,3.891 z m -1.3636363,6.8 0.6727272,0.6727 0.6909091,-0.6727 0,-4.5819 -0.8545454,-0.8545 -0.5090909,0.5273 0,4.9091 z"
         style=""
         id="path4153" />
      <path
         d="m 16.231257,1014.0037 -0.509091,0.5091 -0.854546,-0.8545 0,-4.5819 0.672728,-0.6727 0.690909,0.6727 0,4.9273 z m 0,6.4546 -0.690909,0.6727 -0.672728,-0.6727 0,-4.5819 0.854546,-0.8545 0.509091,0.5273 0,4.9091 z"
         style=""
         id="path4155" />
      <path
         d="m 26.883814,1019.5128 -0.672728,0.6909 -0.672727,-0.6909 0,-3.6364 0.854545,-0.8545 0.49091,0.5273 0,3.9636 z m 0,-5.5091 -0.49091,0.5091 -0.854545,-0.8545 0,-3.6364 0.672727,-0.6909 0.672728,0.6909 0,3.9818 z m -0.927273,-4.9273 -0.672727,0.6909 -4.418182,0 -1.345455,-1.3636 5.763637,0 0.672727,0.6727 z m 0,11.3819 -0.672727,0.6727 -5.763637,0 1.345455,-1.3637 4.418182,0 0.672727,0.691 z m -5.327273,-6.8 -0.854545,0.8545 -0.509091,-0.5091 0,-5.3454 1.363636,1.3636 0,3.6364 z m 0,5.8545 -1.363636,1.3636 0,-5.3272 0.509091,-0.5273 0.854545,0.8545 0,3.6364 z"
         style=""
         id="path4157" />
      <path
         d="m 36.688501,1008.4037 -1.345454,1.3636 -4.672728,0 -1.345454,-1.3636 7.363636,0 z m 0,12.7273 -7.363636,0 1.345454,-1.3637 4.672728,0 1.345454,1.3637 z m -6.254545,-5.2546 0,3.6364 -1.363637,1.3636 0,-5.3272 0.509091,-0.5273 0.854546,0.8545 z m -1.363637,-1.8727 0,-5.3454 1.363637,1.3636 0,3.6364 -0.854546,0.8545 -0.509091,-0.5091 z m 6.181818,0.091 0.69091,0.6727 -0.69091,0.6728 -4.745454,0 -0.672727,-0.6728 0.672727,-0.6727 4.745454,0 z"
         style=""
         id="path4159" />
      <path
         d="m 46.493189,1014.0037 -0.49091,0.5091 -0.854545,-0.8545 0,-3.6364 0.672727,-0.6909 0.672728,0.6909 0,3.9818 z m -0.927273,-4.9273 -0.672727,0.6909 -4.418182,0 -0.672728,-0.6909 0.672728,-0.6727 4.418182,0 0.672727,0.6727 z m 0.927273,10.4364 -0.672728,0.6909 -0.672727,-0.6909 0,-3.6364 0.854545,-0.8545 0.49091,0.5273 0,3.9636 z m -6.254546,-5.8545 -0.854545,0.8545 -0.509091,-0.5091 0,-3.9818 0.672727,-0.6909 0.690909,0.6909 0,3.6364 z m -1.363636,5.8545 0.672727,0.6909 0.690909,-0.6909 0,-3.6364 -0.854545,-0.8545 -0.509091,0.5273 0,3.9636 z m 1.6,1.6182 -0.672728,-0.6727 0.672728,-0.691 4.418182,0 0.672727,0.691 -0.672727,0.6727 -4.418182,0 z"
         style=""
         id="path4161" />
    </g>
    <g
       style="font-style:normal;font-variant:normal;font-weight:normal;font-stretch:normal;font-size:23.71295929px;line-height:125%;font-family:DS-Digital;-inkscape-font-specification:'DS-Digital, Normal';text-align:start;letter-spacing:0px;word-spacing:0px;writing-mode:lr-tb;text-anchor:start;fill:#ffffff;fill-opacity:1;stroke:none;stroke-width:1px;stroke-linecap:butt;stroke-linejoin:miter;stroke-opacity:1"
       id="text5109">
      <path
         d="m 12.277513,1029.2725 -1.595236,1.6168 -5.8204532,0 -1.6167927,-1.6168 9.0324819,0 z m -3.7078447,14.2924 -0.8191749,0.7976 -0.7976177,-0.7976 0,-4.6348 1.01319,-1.0132 0.6036026,0.6036 0,5.0444 z m 0,-6.8336 -0.6036026,0.582 -1.01319,-0.9916 0,-4.333 0.7976177,-0.7976 0.8191749,0.7976 0,4.7426 z"
         style=""
         id="path4164" />
      <path
         d="m 23.90242,1029.2725 -1.595235,1.6168 -5.54021,0 -1.595235,-1.6168 8.73068,0 z m 0,15.09 -8.73068,0 1.595235,-1.6167 5.54021,0 1.595235,1.6167 z m -7.415689,-6.23 0,4.3115 -1.616792,1.6167 0,-6.3162 0.603602,-0.6252 1.01319,1.0132 z m -1.616792,-2.2204 0,-6.3378 1.616792,1.6168 0,4.3114 -1.01319,1.0132 -0.603602,-0.6036 z m 7.32946,0.1078 0.819175,0.7976 -0.819175,0.7976 -5.626439,0 -0.797617,-0.7976 0.797617,-0.7976 5.626439,0 z"
         style=""
         id="path4166" />
      <path
         d="m 31.323667,1036.5157 0,-1.7677 3.2767,-5.4755 0.926961,0 0,1.5737 -3.384486,5.6695 -0.819175,0 z m -1.422778,0 -3.406043,-5.6695 0,-1.5737 0.926961,0 3.2767,5.4755 0,1.7677 -0.797618,0 z m 0.797618,0.6036 0,1.7677 -3.2767,5.4755 -0.926961,0 0,-1.5736 3.406043,-5.6696 0.797618,0 z m 1.422778,0 3.406043,5.6696 0,1.5736 -0.926961,0 -3.2767,-5.4755 0,-1.7677 0.797618,0 z"
         style=""
         id="path4168" />
      <path
         d="m 47.152234,1029.2725 -1.595235,1.6168 -5.820454,0 -1.616792,-1.6168 9.032481,0 z m -3.707844,14.2924 -0.819175,0.7976 -0.797618,-0.7976 0,-4.6348 1.01319,-1.0132 0.603603,0.6036 0,5.0444 z m 0,-6.8336 -0.603603,0.582 -1.01319,-0.9916 0,-4.333 0.797618,-0.7976 0.819175,0.7976 0,4.7426 z"
         style=""
         id="path4170" />
    </g>
  </g>
</svg>
