<?xml version="1.0" encoding="UTF-8" standalone="no"?>
<!-- Generator: Adobe Illustrator 16.0.0, SVG Export Plug-In . SVG Version: 6.00 Build 0)  -->

<svg
   xmlns:dc="http://purl.org/dc/elements/1.1/"
   xmlns:cc="http://creativecommons.org/ns#"
   xmlns:rdf="http://www.w3.org/1999/02/22-rdf-syntax-ns#"
   xmlns:svg="http://www.w3.org/2000/svg"
   xmlns="http://www.w3.org/2000/svg"
   xmlns:sodipodi="http://sodipodi.sourceforge.net/DTD/sodipodi-0.dtd"
   xmlns:inkscape="http://www.inkscape.org/namespaces/inkscape"
   version="1.1"
   id="Capa_1"
   x="0px"
   y="0px"
   width="21.621px"
   height="29.046px"
   viewBox="0 0 21.621 29.046"
   style="enable-background:new 0 0 21.621 29.046;"
   xml:space="preserve"
   inkscape:version="0.91pre2 r13516"
   sodipodi:docname="ico_timer_active.svg"><metadata
     id="metadata39"><rdf:RDF><cc:Work
         rdf:about=""><dc:format>image/svg+xml</dc:format><dc:type
           rdf:resource="http://purl.org/dc/dcmitype/StillImage" /><dc:title></dc:title></cc:Work></rdf:RDF></metadata><defs
     id="defs37" /><sodipodi:namedview
     pagecolor="#ffffff"
     bordercolor="#666666"
     borderopacity="1"
     objecttolerance="10"
     gridtolerance="10"
     guidetolerance="10"
     inkscape:pageopacity="0"
     inkscape:pageshadow="2"
     inkscape:window-width="1846"
     inkscape:window-height="1058"
     id="namedview35"
     showgrid="false"
     inkscape:zoom="8.1250432"
     inkscape:cx="10.8105"
     inkscape:cy="14.523"
     inkscape:window-x="66"
     inkscape:window-y="-8"
     inkscape:window-maximized="1"
     inkscape:current-layer="Capa_1" /><path
     d="M21.621,17.932c0,1.291-1.193,2.104-2.486,2.104h-0.01c0.965,0.166,2.111,1.331,2.111,2.462c0,1.243-1.184,2.019-2.43,2.019  h-1.072c0.844,0.243,1.977,1.375,1.977,2.462c0,1.27-1.191,2.067-2.459,2.067H6.443C2.883,29.046,0,26.159,0,22.599  c0,0,0-6.872,0-6.88c0-2.522,1.395-5.189,3.59-6.042c1.711-1.126,5.15-3.133,5.883-6.85c0-1.449,0-2.809,0-2.809  s4.807-0.52,4.807,3.999c0,5.322-3.348,6.186-0.686,6.314h3.98c1.406,0,2.621,1.37,2.621,2.779c0,1.217-1.154,2.006-2.119,2.254  h1.059C20.428,15.365,21.621,16.642,21.621,17.932z"
     id="path3"
     style="fill:#2ca02c" /><g
     id="g5" /><g
     id="g7" /><g
     id="g9" /><g
     id="g11" /><g
     id="g13" /><g
     id="g15" /><g
     id="g17" /><g
     id="g19" /><g
     id="g21" /><g
     id="g23" /><g
     id="g25" /><g
     id="g27" /><g
     id="g29" /><g
     id="g31" /><g
     id="g33" /></svg>