<?xml version="1.0" encoding="UTF-8" standalone="no"?>
<!-- Generator: Adobe Illustrator 15.1.0, SVG Export Plug-In . SVG Version: 6.00 Build 0)  -->

<svg
   xmlns:dc="http://purl.org/dc/elements/1.1/"
   xmlns:cc="http://creativecommons.org/ns#"
   xmlns:rdf="http://www.w3.org/1999/02/22-rdf-syntax-ns#"
   xmlns:svg="http://www.w3.org/2000/svg"
   xmlns="http://www.w3.org/2000/svg"
   xmlns:sodipodi="http://sodipodi.sourceforge.net/DTD/sodipodi-0.dtd"
   xmlns:inkscape="http://www.inkscape.org/namespaces/inkscape"
   version="1.1"
   id="Layer_1"
   x="0px"
   y="0px"
   width="249.17131"
   height="249.17439"
   viewBox="0 0 249.17131 249.17439"
   enable-background="new 0 0 512 512"
   xml:space="preserve"
   inkscape:version="0.48.5 r10040"
   sodipodi:docname="clear-night.svg"><metadata
   id="metadata76"><rdf:RDF><cc:Work
       rdf:about=""><dc:format>image/svg+xml</dc:format><dc:type
         rdf:resource="http://purl.org/dc/dcmitype/StillImage" /></cc:Work></rdf:RDF></metadata><defs
   id="defs74" /><sodipodi:namedview
   pagecolor="#ffffff"
   bordercolor="#666666"
   borderopacity="1"
   objecttolerance="10"
   gridtolerance="10"
   guidetolerance="10"
   inkscape:pageopacity="0"
   inkscape:pageshadow="2"
   inkscape:window-width="640"
   inkscape:window-height="480"
   id="namedview72"
   showgrid="false"
   inkscape:zoom="0.4609375"
   inkscape:cx="124.585"
   inkscape:cy="124.587"
   inkscape:window-x="0"
   inkscape:window-y="0"
   inkscape:window-maximized="0"
   inkscape:current-layer="Layer_1"
   fit-margin-top="0"
   fit-margin-left="0"
   fit-margin-right="0"
   fit-margin-bottom="0" />

<path
   d="m 218.437,211.73739 c -49.876,49.916 -131.083,49.916 -181,0 -49.916,-49.917 -49.916,-131.124997 0,-181.020997 13.209,-13.187 29.312,-23.2499996 47.832,-29.81199961 5.834,-2.04199999 12.293,-0.562 16.625,3.79200001 4.376,4.375 5.855,10.8329996 3.793,16.6249996 -12.542,35.375 -4,73.666 22.249,99.916997 26.209,26.228 64.501,34.75 99.917,22.25 5.792,-2.062 12.271,-0.583 16.625,3.792 4.376,4.333 5.834,10.812 3.771,16.625 -6.521,18.52 -16.604,34.623 -29.812,47.832 z M 60.062,53.341393 c -37.438,37.438 -37.438,98.353997 0,135.770997 40,40.021 108.125,36.417 143,-8.167 -35.959,2.25 -71.375,-10.729 -97.75,-37.084 -26.375,-26.354 -39.333,-61.770997 -37.084,-97.728997 -2.874,2.251 -5.604,4.647 -8.166,7.209 z"
   id="path70"
   style="fill:#b3b3b3"
   inkscape:connector-curvature="0" />
</svg>