<?xml version="1.0" encoding="UTF-8" standalone="no"?>
<!-- Generator: Adobe Illustrator 15.1.0, SVG Export Plug-In . SVG Version: 6.00 Build 0)  -->

<svg
   xmlns:dc="http://purl.org/dc/elements/1.1/"
   xmlns:cc="http://creativecommons.org/ns#"
   xmlns:rdf="http://www.w3.org/1999/02/22-rdf-syntax-ns#"
   xmlns:svg="http://www.w3.org/2000/svg"
   xmlns="http://www.w3.org/2000/svg"
   xmlns:sodipodi="http://sodipodi.sourceforge.net/DTD/sodipodi-0.dtd"
   xmlns:inkscape="http://www.inkscape.org/namespaces/inkscape"
   version="1.1"
   id="Layer_1"
   x="0px"
   y="0px"
   width="416"
   height="416"
   viewBox="0 0 416 416"
   enable-background="new 0 0 512 512"
   xml:space="preserve"
   inkscape:version="0.48.5 r10040"
   sodipodi:docname="clear-day.svg"><metadata
   id="metadata80"><rdf:RDF><cc:Work
       rdf:about=""><dc:format>image/svg+xml</dc:format><dc:type
         rdf:resource="http://purl.org/dc/dcmitype/StillImage" /></cc:Work></rdf:RDF></metadata><defs
   id="defs78" /><sodipodi:namedview
   pagecolor="#ffffff"
   bordercolor="#666666"
   borderopacity="1"
   objecttolerance="10"
   gridtolerance="10"
   guidetolerance="10"
   inkscape:pageopacity="0"
   inkscape:pageshadow="2"
   inkscape:window-width="640"
   inkscape:window-height="480"
   id="namedview76"
   showgrid="false"
   inkscape:zoom="0.4609375"
   inkscape:cx="208"
   inkscape:cy="208"
   inkscape:window-x="0"
   inkscape:window-y="0"
   inkscape:window-maximized="0"
   inkscape:current-layer="Layer_1"
   fit-margin-top="0"
   fit-margin-left="0"
   fit-margin-right="0"
   fit-margin-bottom="0" />

<g
   id="g70"
   style="fill:#b3b3b3"
   transform="translate(-48,-48)">
	<g
   id="g72"
   style="fill:#b3b3b3">
		<path
   clip-rule="evenodd"
   d="m 256,144 c -61.75,0 -112,50.25 -112,112 0,61.75 50.25,112 112,112 61.75,0 112,-50.25 112,-112 0,-61.75 -50.25,-112 -112,-112 z m 0,192 c -44.188,0 -80,-35.812 -80,-80 0,-44.188 35.812,-80 80,-80 44.188,0 80,35.812 80,80 0,44.188 -35.812,80 -80,80 z m 0,-224 c 8.833,0 16,-7.167 16,-16 V 64 c 0,-8.833 -7.167,-16 -16,-16 -8.833,0 -16,7.167 -16,16 v 32 c 0,8.833 7.167,16 16,16 z m 0,288 c -8.833,0 -16,7.167 -16,16 v 32 c 0,8.833 7.167,16 16,16 8.833,0 16,-7.167 16,-16 v -32 c 0,-8.833 -7.167,-16 -16,-16 z m 124.438,-245.833 22.625,-22.625 c 6.25,-6.25 6.25,-16.375 0,-22.625 -6.25,-6.25 -16.375,-6.25 -22.625,0 l -22.625,22.625 c -6.25,6.25 -6.25,16.375 0,22.625 6.249,6.25 16.375,6.25 22.625,0 z m -248.876,203.667 -22.625,22.625 c -6.25,6.249 -6.25,16.374 0,22.624 6.25,6.25 16.375,6.25 22.625,0 l 22.625,-22.624 c 6.25,-6.271 6.25,-16.376 0,-22.625 -6.249,-6.251 -16.375,-6.272 -22.625,0 z M 112,256 c 0,-8.833 -7.167,-16 -16,-16 H 64 c -8.833,0 -16,7.167 -16,16 0,8.833 7.167,16 16,16 h 32 c 8.833,0 16,-7.167 16,-16 z m 336,-16 h -32 c -8.833,0 -16,7.167 -16,16 0,8.833 7.167,16 16,16 h 32 c 8.833,0 16,-7.167 16,-16 0,-8.833 -7.167,-16 -16,-16 z M 131.541,154.167 c 6.251,6.25 16.376,6.25 22.625,0 6.251,-6.25 6.251,-16.375 0,-22.625 l -22.625,-22.625 c -6.25,-6.25 -16.374,-6.25 -22.625,0 -6.25,6.25 -6.25,16.375 0,22.625 l 22.625,22.625 z m 248.918,203.645 c -6.271,-6.25 -16.376,-6.25 -22.625,0 -6.251,6.25 -6.271,16.375 0,22.625 l 22.625,22.625 c 6.249,6.25 16.374,6.25 22.624,0 6.25,-6.25 6.25,-16.374 0,-22.625 l -22.624,-22.625 z"
   id="path74"
   style="fill:#b3b3b3;fill-rule:evenodd"
   inkscape:connector-curvature="0" />
	</g>
</g>
</svg>