<?xml version="1.0" encoding="UTF-8" standalone="no"?>
<!-- Generator: Adobe Illustrator 16.0.0, SVG Export Plug-In . SVG Version: 6.00 Build 0)  -->

<svg
   xmlns:dc="http://purl.org/dc/elements/1.1/"
   xmlns:cc="http://creativecommons.org/ns#"
   xmlns:rdf="http://www.w3.org/1999/02/22-rdf-syntax-ns#"
   xmlns:svg="http://www.w3.org/2000/svg"
   xmlns="http://www.w3.org/2000/svg"
   xmlns:sodipodi="http://sodipodi.sourceforge.net/DTD/sodipodi-0.dtd"
   xmlns:inkscape="http://www.inkscape.org/namespaces/inkscape"
   version="1.1"
   id="Layer_1"
   x="0px"
   y="0px"
   width="512px"
   height="512px"
   viewBox="0 0 512 512"
   style="enable-background:new 0 0 512 512;"
   xml:space="preserve"
   inkscape:version="0.91pre2 r13516"
   sodipodi:docname="ico_recording.svg"><metadata
     id="metadata9"><rdf:RDF><cc:Work
         rdf:about=""><dc:format>image/svg+xml</dc:format><dc:type
           rdf:resource="http://purl.org/dc/dcmitype/StillImage" /><dc:title></dc:title></cc:Work></rdf:RDF></metadata><defs
     id="defs7" /><sodipodi:namedview
     pagecolor="#ffffff"
     bordercolor="#666666"
     borderopacity="1"
     objecttolerance="10"
     gridtolerance="10"
     guidetolerance="10"
     inkscape:pageopacity="0"
     inkscape:pageshadow="2"
     inkscape:window-width="1846"
     inkscape:window-height="1058"
     id="namedview5"
     showgrid="false"
     inkscape:zoom="0.4609375"
     inkscape:cx="256"
     inkscape:cy="256"
     inkscape:window-x="66"
     inkscape:window-y="-8"
     inkscape:window-maximized="1"
     inkscape:current-layer="Layer_1" /><path
     d="M59.727,431.163h28.07c3.17,0,5.739-2.569,5.739-5.739v-37.333h53.683v37.333c0,3.17,2.57,5.739,5.739,5.739h206.084  c3.169,0,5.739-2.569,5.739-5.739v-37.333h53.683v37.333c0,3.17,2.569,5.739,5.739,5.739h28.07c3.169,0,5.738-2.569,5.738-5.739  V86.576c0-3.17-2.569-5.739-5.738-5.739h-28.07c-3.17,0-5.739,2.569-5.739,5.739v37.333h-53.683V86.576  c0-3.17-2.57-5.739-5.739-5.739H152.958c-3.169,0-5.739,2.569-5.739,5.739v37.333H93.536V86.576c0-3.17-2.569-5.739-5.739-5.739  h-28.07c-3.169,0-5.738,2.569-5.738,5.739v338.848C53.988,428.594,56.557,431.163,59.727,431.163z M364.781,176.181h53.683v53.684  h-53.683V176.181z M364.781,282.136h53.683v53.684h-53.683V282.136z M93.536,176.181h53.683v53.684H93.536V176.181z M93.536,282.136  h53.683v53.684H93.536V282.136z"
     id="path3"
     style="fill:#ececec" /></svg>