<?xml version="1.0" encoding="UTF-8" standalone="no"?>
<!-- Generator: Adobe Illustrator 16.0.0, SVG Export Plug-In . SVG Version: 6.00 Build 0)  -->

<svg
   xmlns:dc="http://purl.org/dc/elements/1.1/"
   xmlns:cc="http://creativecommons.org/ns#"
   xmlns:rdf="http://www.w3.org/1999/02/22-rdf-syntax-ns#"
   xmlns:svg="http://www.w3.org/2000/svg"
   xmlns="http://www.w3.org/2000/svg"
   xmlns:xlink="http://www.w3.org/1999/xlink"
   xmlns:sodipodi="http://sodipodi.sourceforge.net/DTD/sodipodi-0.dtd"
   xmlns:inkscape="http://www.inkscape.org/namespaces/inkscape"
   version="1.1"
   id="Capa_1"
   x="0px"
   y="0px"
   width="100"
   height="100"
   viewBox="0 0 100 100"
   xml:space="preserve"
   inkscape:version="0.48.5 r10040"
   sodipodi:docname="ico_pause_active.svg"><metadata
     id="metadata45"><rdf:RDF><cc:Work
         rdf:about=""><dc:format>image/svg+xml</dc:format><dc:type
           rdf:resource="http://purl.org/dc/dcmitype/StillImage" /><dc:title></dc:title></cc:Work></rdf:RDF></metadata><defs
     id="defs43"><linearGradient
       id="linearGradient4173"><stop
         style="stop-color:#3c0000;stop-opacity:1;"
         offset="0"
         id="stop4175" /><stop
         style="stop-color:#c80000;stop-opacity:1;"
         offset="1"
         id="stop4177" /></linearGradient><linearGradient
       inkscape:collect="always"
       xlink:href="#linearGradient4173"
       id="linearGradient4179"
       x1="-13.433744"
       y1="86.582359"
       x2="54.143299"
       y2="-2.3079979"
       gradientUnits="userSpaceOnUse" /></defs><sodipodi:namedview
     pagecolor="#ffffff"
     bordercolor="#666666"
     borderopacity="1"
     objecttolerance="10"
     gridtolerance="10"
     guidetolerance="10"
     inkscape:pageopacity="0"
     inkscape:pageshadow="2"
     inkscape:window-width="1400"
     inkscape:window-height="998"
     id="namedview41"
     showgrid="false"
     inkscape:zoom="3.3714286"
     inkscape:cx="26.5"
     inkscape:cy="35"
     inkscape:window-x="-2"
     inkscape:window-y="-3"
     inkscape:window-maximized="1"
     inkscape:current-layer="Capa_1" /><g
     id="g3"
     transform="matrix(1.0377358,0,0,0.91428571,22.5,18)"
     style="fill:url(#linearGradient4179);fill-opacity:1"><g
       id="g5"
       style="fill:url(#linearGradient4179);fill-opacity:1"><path
         d="m 44,0 c -4.972,0 -9,1.529 -9,6.5 l 0,57 c 0,4.971 4.028,6.5 9,6.5 4.971,0 9,-1.529 9,-6.5 l 0,-57 C 53,1.529 48.971,0 44,0 Z"
         id="path7"
         inkscape:connector-curvature="0"
         style="fill:url(#linearGradient4179);fill-opacity:1" /><path
         d="M 9,0 C 4.028,0 0,1.529 0,6.5 l 0,57 c 0,4.971 4.028,6.5 9,6.5 4.971,0 9,-1.529 9,-6.5 l 0,-57 C 18,1.529 13.971,0 9,0 Z"
         id="path9"
         inkscape:connector-curvature="0"
         style="fill:url(#linearGradient4179);fill-opacity:1" /></g></g><g
     id="g11"
     transform="translate(0,30)" /><g
     id="g13"
     transform="translate(0,30)" /><g
     id="g15"
     transform="translate(0,30)" /><g
     id="g17"
     transform="translate(0,30)" /><g
     id="g19"
     transform="translate(0,30)" /><g
     id="g21"
     transform="translate(0,30)" /><g
     id="g23"
     transform="translate(0,30)" /><g
     id="g25"
     transform="translate(0,30)" /><g
     id="g27"
     transform="translate(0,30)" /><g
     id="g29"
     transform="translate(0,30)" /><g
     id="g31"
     transform="translate(0,30)" /><g
     id="g33"
     transform="translate(0,30)" /><g
     id="g35"
     transform="translate(0,30)" /><g
     id="g37"
     transform="translate(0,30)" /><g
     id="g39"
     transform="translate(0,30)" /></svg>