<?xml version="1.0" encoding="UTF-8" standalone="no"?>
<!-- Generator: Adobe Illustrator 16.0.0, SVG Export Plug-In . SVG Version: 6.00 Build 0)  -->

<svg
   xmlns:dc="http://purl.org/dc/elements/1.1/"
   xmlns:cc="http://creativecommons.org/ns#"
   xmlns:rdf="http://www.w3.org/1999/02/22-rdf-syntax-ns#"
   xmlns:svg="http://www.w3.org/2000/svg"
   xmlns="http://www.w3.org/2000/svg"
   xmlns:sodipodi="http://sodipodi.sourceforge.net/DTD/sodipodi-0.dtd"
   xmlns:inkscape="http://www.inkscape.org/namespaces/inkscape"
   version="1.1"
   id="Layer_1"
   x="0px"
   y="0px"
   width="512px"
   height="512px"
   viewBox="0 0 512 512"
   style="enable-background:new 0 0 512 512;"
   xml:space="preserve"
   inkscape:version="0.91pre2 r13516"
   sodipodi:docname="ico_new_rec.svg"><metadata
     id="metadata9"><rdf:RDF><cc:Work
         rdf:about=""><dc:format>image/svg+xml</dc:format><dc:type
           rdf:resource="http://purl.org/dc/dcmitype/StillImage" /><dc:title /></cc:Work></rdf:RDF></metadata><defs
     id="defs7" /><sodipodi:namedview
     pagecolor="#ffffff"
     bordercolor="#666666"
     borderopacity="1"
     objecttolerance="10"
     gridtolerance="10"
     guidetolerance="10"
     inkscape:pageopacity="0"
     inkscape:pageshadow="2"
     inkscape:window-width="852"
     inkscape:window-height="480"
     id="namedview5"
     showgrid="false"
     inkscape:zoom="0.4609375"
     inkscape:cx="-114.98305"
     inkscape:cy="256"
     inkscape:window-x="840"
     inkscape:window-y="429"
     inkscape:window-maximized="0"
     inkscape:current-layer="Layer_1" /><path
     d="M450.352,256.508l35.405-36.292c4.403-4.513,6.224-10.947,4.838-17.097c-1.387-6.15-5.79-11.182-11.704-13.37  l-47.546-17.595l16.163-48.054c2.011-5.976,0.859-12.563-3.056-17.504c-3.917-4.94-10.07-7.572-16.344-6.971l-50.478,4.766  l-6.27-50.309c-0.779-6.257-4.672-11.694-10.345-14.448c-5.671-2.753-12.353-2.45-17.75,0.806l-43.818,26.427l-27.876-42.914  c-3.435-5.287-9.311-8.477-15.616-8.477c-6.304,0-12.182,3.19-15.617,8.478l-27.616,42.517L169.4,40.138  c-5.386-3.275-12.065-3.603-17.748-0.868c-5.681,2.735-9.592,8.158-10.394,14.412l-6.448,50.288l-50.457-4.942  c-6.273-0.619-12.435,1.988-16.368,6.915c-3.933,4.927-5.106,11.51-3.117,17.492l15.994,48.109l-47.609,17.429  c-5.92,2.167-10.341,7.184-11.748,13.329c-1.408,6.146,0.39,12.586,4.775,17.114l35.279,36.413L26.219,292.18  c-4.394,4.52-6.203,10.958-4.808,17.105c1.398,6.148,5.812,11.171,11.728,13.349l47.579,17.512l-16.083,48.082  c-2,5.979-0.84,12.564,3.086,17.498c3.925,4.935,10.082,7.548,16.355,6.944l50.465-4.854l6.362,50.3  c0.792,6.255,4.692,11.685,10.369,14.429c5.677,2.745,12.356,2.43,17.748-0.836l43.37-26.258l27.545,42.566  c3.425,5.293,9.297,8.494,15.601,8.505c0.01,0,0.021,0,0.032,0c6.293,0,12.161-3.179,15.598-8.451l27.692-42.468l43.28,26.41  c5.381,3.285,12.059,3.623,17.745,0.898c5.686-2.725,9.606-8.141,10.42-14.394l6.535-50.277l50.451,5.03  c6.281,0.625,12.438-1.967,16.38-6.887c3.941-4.92,5.126-11.501,3.146-17.487l-15.912-48.135l47.639-17.347  c5.924-2.157,10.354-7.166,11.772-13.309c1.418-6.143-0.368-12.586-4.747-17.122L450.352,256.508z M196.262,297.391  c0,3.024-2.451,5.476-5.476,5.476H174.42c-1.953,0-3.757-1.04-4.737-2.729l-19.148-33.007c-3.132-5.383-8.644-15.191-13.691-25.865  c0.375,10.122,0.558,20.905,0.558,32.748v23.377c0,3.024-2.452,5.476-5.476,5.476h-11.891c-3.025,0-5.477-2.452-5.477-5.476v-82.781  c0-3.024,2.452-5.477,5.477-5.477h18.926c1.933,0,3.722,1.02,4.708,2.681l18.572,31.28c4.251,7.204,8.511,15.414,12.167,23.403  c-0.679-8.5-0.99-17.887-0.99-29.315v-22.571c0-3.024,2.451-5.477,5.476-5.477h11.891c3.025,0,5.476,2.453,5.476,5.477V297.391z   M270.473,297.391c0,3.024-2.452,5.476-5.476,5.476h-52.727c-3.024,0-5.477-2.452-5.477-5.476v-82.781  c0-3.024,2.452-5.477,5.477-5.477h50.755c3.025,0,5.476,2.453,5.476,5.477v8.98c0,3.024-2.451,5.477-5.476,5.477h-31.559v15.689  h29.445c3.025,0,5.477,2.452,5.477,5.477v8.846c0,3.025-2.452,5.476-5.477,5.476h-29.445v18.379h33.53  c3.024,0,5.476,2.452,5.476,5.476V297.391z M397.251,216.039l-22.386,82.78c-0.646,2.388-2.812,4.047-5.286,4.047h-17.053  c-2.599,0-4.84-1.827-5.364-4.373l-7.38-35.84c-1.332-6.655-2.422-12.51-3.323-18.649c-1.181,6.586-2.387,12.515-3.911,18.703  l-8.302,35.916c-0.574,2.484-2.787,4.243-5.336,4.243h-17.347c-2.516,0-4.708-1.713-5.314-4.155l-20.585-82.78  c-0.407-1.635-0.039-3.367,1-4.695c1.038-1.328,2.63-2.104,4.314-2.104h14.718c2.625,0,4.882,1.864,5.377,4.443l6.575,34.212  c1.521,7.752,2.967,15.958,4.238,23.387c1.299-7.112,2.9-14.837,4.8-23.697l7.362-34.027c0.545-2.52,2.774-4.319,5.352-4.319h16.448  c2.611,0,4.859,1.846,5.371,4.407l6.976,35.029c1.375,6.916,2.568,13.689,3.719,21.153c0.84-4.962,1.786-10.026,2.765-15.268  l0.063-0.335c0.406-2.177,0.813-4.362,1.216-6.554c0.007-0.044,0.016-0.087,0.025-0.13l7.086-33.944  c0.531-2.538,2.768-4.358,5.361-4.358h13.536c1.705,0,3.313,0.794,4.349,2.148C397.35,212.635,397.696,214.394,397.251,216.039z"
     id="path3"
     style="fill:#ffffff" /></svg>