<?xml version="1.0" encoding="UTF-8" standalone="no"?>
<!-- Created with Inkscape (http://www.inkscape.org/) -->

<svg
   xmlns:dc="http://purl.org/dc/elements/1.1/"
   xmlns:cc="http://creativecommons.org/ns#"
   xmlns:rdf="http://www.w3.org/1999/02/22-rdf-syntax-ns#"
   xmlns:svg="http://www.w3.org/2000/svg"
   xmlns="http://www.w3.org/2000/svg"
   xmlns:xlink="http://www.w3.org/1999/xlink"
   xmlns:sodipodi="http://sodipodi.sourceforge.net/DTD/sodipodi-0.dtd"
   xmlns:inkscape="http://www.inkscape.org/namespaces/inkscape"
   width="1920"
   height="1080"
   id="svg2"
   version="1.1"
   inkscape:version="0.48.5 r10040"
   sodipodi:docname="gradientSub.svg">
  <defs
     id="defs4">
    <linearGradient
       id="linearGradient3792">
      <stop
         style="stop-color:#050505;stop-opacity:1;"
         offset="0"
         id="stop3794" />
      <stop
         style="stop-color:#373737;stop-opacity:1;"
         offset="1"
         id="stop3796" />
    </linearGradient>
    <linearGradient
       inkscape:collect="always"
       xlink:href="#linearGradient3792"
       id="linearGradient3003"
       gradientUnits="userSpaceOnUse"
       gradientTransform="translate(-96.729534,1530.0154)"
       x1="951.42859"
       y1="-349.76385"
       x2="951.42859"
       y2="-1534.5229" />
    <linearGradient
       inkscape:collect="always"
       xlink:href="#linearGradient3792"
       id="linearGradient3005"
       gradientUnits="userSpaceOnUse"
       gradientTransform="translate(-101.01525,1530.0154)"
       x1="951.42859"
       y1="-349.76385"
       x2="951.42859"
       y2="-1534.5229" />
  </defs>
  <sodipodi:namedview
     id="base"
     pagecolor="#ffffff"
     bordercolor="#666666"
     borderopacity="1.0"
     inkscape:pageopacity="0.0"
     inkscape:pageshadow="2"
     inkscape:zoom="5.6"
     inkscape:cx="-10.321331"
     inkscape:cy="1095.1369"
     inkscape:document-units="px"
     inkscape:current-layer="layer1"
     showgrid="false"
     inkscape:window-width="1680"
     inkscape:window-height="966"
     inkscape:window-x="-4"
     inkscape:window-y="32"
     inkscape:window-maximized="1"
     inkscape:showpageshadow="false"
     fit-margin-top="0"
     fit-margin-left="0"
     fit-margin-right="0"
     fit-margin-bottom="0"
     showguides="true"
     inkscape:guide-bbox="true">
    <sodipodi:guide
       orientation="1,0"
       position="19.285714,397.85714"
       id="guide3001" />
    <sodipodi:guide
       orientation="1,0"
       position="1920,1026.25"
       id="guide2991" />
  </sodipodi:namedview>
  <metadata
     id="metadata7">
    <rdf:RDF>
      <cc:Work
         rdf:about="">
        <dc:format>image/svg+xml</dc:format>
        <dc:type
           rdf:resource="http://purl.org/dc/dcmitype/StillImage" />
        <dc:title></dc:title>
      </cc:Work>
    </rdf:RDF>
  </metadata>
  <g
     inkscape:label="Ebene 1"
     inkscape:groupmode="layer"
     id="layer1"
     transform="translate(-149.484,1146.3279)">
    <g
       id="g2996">
      <path
         inkscape:connector-curvature="0"
         id="rect2994"
         transform="translate(149.484,-1146.3279)"
         d="M 0.25,0 C 0.11352876,0 0,0.11352876 0,0.25 l 0,1079.5 c 0,0.1365 0.11352876,0.25 0.25,0.25 l 1919.5,0 c 0.1365,0 0.25,-0.1135 0.25,-0.25 L 1920,0.25 C 1920,0.11352876 1919.8865,0 1919.75,0 L 0.25,0 z m 15.40625,627.1875 758.375,0 c 0.13861,0 0.25,0.11139 0.25,0.25 l 0,425.2813 c 0,0.1386 -0.11139,0.25 -0.25,0.25 l -758.375,0 c -0.138609,0 -0.25,-0.1114 -0.25,-0.25 l 0,-425.2813 c 0,-0.13861 0.111391,-0.25 0.25,-0.25 z"
         style="fill:url(#linearGradient3005);fill-opacity:1;fill-rule:nonzero;stroke:none" />
      <path
         id="path2999"
         transform="translate(149.484,-1146.3279)"
         d="M 4.53125 0 C 4.39477 0 4.28125 0.1135 4.28125 0.25 L 4.28125 1079.75 C 4.28125 1079.8865 4.39477 1080 4.53125 1080 L 1920 1080 L 1920 0 L 4.53125 0 z M 19.9375 627.1875 L 778.3125 627.1875 C 778.45111 627.1875 778.5625 627.29889 778.5625 627.4375 L 778.5625 1052.7188 C 778.5625 1052.8573 778.45111 1052.9688 778.3125 1052.9688 L 19.9375 1052.9688 C 19.79889 1052.9688 19.6875 1052.8573 19.6875 1052.7188 L 19.6875 627.4375 C 19.6875 627.29889 19.79889 627.1875 19.9375 627.1875 z "
         style="fill:url(#linearGradient3003);fill-opacity:1;fill-rule:nonzero;stroke:none" />
    </g>
  </g>
</svg>
