/* XPM */
static char * recOff_xpm[] = {
"45 28 3 1",
" 	c None",
".	c #000000",
"+	c #797979",
".............................................",
".............................................",
".............................................",
"....+++++++++++++++++++++++++++++++++++++....",
"...+++++++++++++++++++++++++++++++++++++++...",
"...+++++++++++++++++++++++++++++++++++++++...",
"...+++++++++++++++++++++++++++++++++++++++...",
"...+++++++++++++++++++++++++++++++++++++++...",
"...+++++++++++++++++++++++++++++++++++++++...",
"...+++++++++++++++++++++++++++++++++++++++...",
"...++++++.....+++++.......+++++...++++++++...",
"...++++++..++..++++..+++++++++.....+++++++...",
"...++++++..+++.++++..++++++++.......++++++...",
"...++++++......++++......+++...+++++++++++...",
"...++++++.....+++++......+++...+++++++++++...",
"...++++++..++.+++++..++++++++.......++++++...",
"...++++++..++..++++..+++++++++.....+++++++...",
"...++++++..+++..+++.......+++++...++++++++...",
"...+++++++++++++++++++++++++++++++++++++++...",
"...+++++++++++++++++++++++++++++++++++++++...",
"...+++++++++++++++++++++++++++++++++++++++...",
"...+++++++++++++++++++++++++++++++++++++++...",
"...+++++++++++++++++++++++++++++++++++++++...",
"...+++++++++++++++++++++++++++++++++++++++...",
"....+++++++++++++++++++++++++++++++++++++....",
".............................................",
".............................................",
"............................................."};
