<?xml version="1.0" encoding="UTF-8" standalone="no"?>
<!-- Generator: Adobe Illustrator 15.1.0, SVG Export Plug-In . SVG Version: 6.00 Build 0)  -->

<svg
   xmlns:dc="http://purl.org/dc/elements/1.1/"
   xmlns:cc="http://creativecommons.org/ns#"
   xmlns:rdf="http://www.w3.org/1999/02/22-rdf-syntax-ns#"
   xmlns:svg="http://www.w3.org/2000/svg"
   xmlns="http://www.w3.org/2000/svg"
   xmlns:sodipodi="http://sodipodi.sourceforge.net/DTD/sodipodi-0.dtd"
   xmlns:inkscape="http://www.inkscape.org/namespaces/inkscape"
   version="1.1"
   id="Layer_1"
   x="0px"
   y="0px"
   width="394.73077"
   height="394.73077"
   viewBox="0 0 394.73077 394.73077"
   enable-background="new 0 0 512 512"
   xml:space="preserve"
   inkscape:version="0.48.5 r10040"
   sodipodi:docname="apparenttemp.svg"><metadata
   id="metadata76"><rdf:RDF><cc:Work
       rdf:about=""><dc:format>image/svg+xml</dc:format><dc:type
         rdf:resource="http://purl.org/dc/dcmitype/StillImage" /><dc:title /></cc:Work></rdf:RDF></metadata><defs
   id="defs74"><inkscape:path-effect
     is_visible="true"
     id="path-effect3109"
     effect="spiro" /><inkscape:path-effect
     fuse_tolerance="0"
     vertical_pattern="false"
     prop_units="false"
     tang_offset="0"
     normal_offset="0"
     spacing="0"
     scale_y_rel="false"
     prop_scale="1"
     copytype="single_stretched"
     pattern="m 18.101151,144.11469 c 0,-2.76 2.24,-5 5,-5 2.76,0 5.000001,2.24 5.000001,5 0,2.76 -2.240001,5 -5.000001,5 -2.76,0 -5,-2.24 -5,-5 z"
     is_visible="true"
     id="path-effect3111"
     effect="skeletal" /><inkscape:path-effect
     effect="spiro"
     id="path-effect3081"
     is_visible="true" /><inkscape:path-effect
     effect="skeletal"
     id="path-effect3083"
     is_visible="true"
     pattern="m -43.584808,-74.139052 c 0,-2.76 2.24,-5 5,-5 2.76,0 5,2.24 5,5 0,2.76 -2.24,5 -5,5 -2.76,0 -5,-2.24 -5,-5 z"
     copytype="single_stretched"
     prop_scale="1"
     scale_y_rel="false"
     spacing="0"
     normal_offset="0"
     tang_offset="0"
     prop_units="false"
     vertical_pattern="false"
     fuse_tolerance="0" /></defs><sodipodi:namedview
   pagecolor="#ffffff"
   bordercolor="#666666"
   borderopacity="1"
   objecttolerance="10"
   gridtolerance="10"
   guidetolerance="10"
   inkscape:pageopacity="0"
   inkscape:pageshadow="2"
   inkscape:window-width="1366"
   inkscape:window-height="746"
   id="namedview72"
   showgrid="false"
   inkscape:zoom="1.58"
   inkscape:cx="196.88461"
   inkscape:cy="200.86701"
   inkscape:window-x="-8"
   inkscape:window-y="-8"
   inkscape:window-maximized="1"
   inkscape:current-layer="Layer_1"
   borderlayer="false"
   fit-margin-top="0"
   fit-margin-left="0"
   fit-margin-right="0"
   fit-margin-bottom="0" />

<path
   clip-rule="evenodd"
   d="m 228.88461,243.10577 0,-177.463152 c 0,-19.292 -14.334,-34.917 -32,-34.917 -17.667,0 -32,15.625 -32,34.917 l 0,177.463152 c -19.042,11.083 -32,31.501 -32,55.125 0,35.333 28.666,64 64,64 35.333,0 64,-28.667 64,-64 0,-23.624 -12.938,-44.042 -32,-55.125 z"
   id="path70"
   style="fill:#cccccc;fill-rule:evenodd"
   inkscape:connector-curvature="0"
   sodipodi:nodetypes="cssscsssc" />
<g
   inkscape:groupmode="layer"
   id="layer1"
   inkscape:label="Ebene"
   style="display:none"
   transform="translate(-59.115386,-117.76923)" /><path
   sodipodi:type="arc"
   style="fill:#000000"
   id="path3056"
   sodipodi:cx="253.83051"
   sodipodi:cy="65.084747"
   sodipodi:rx="21.694916"
   sodipodi:ry="21.694916"
   d="m 275.52542,65.084747 a 21.694916,21.694916 0 1 1 -43.38983,0 21.694916,21.694916 0 1 1 43.38983,0 z"
   transform="translate(-57.136252,-0.99169216)" /><rect
   style="fill:#000000"
   id="rect3058"
   width="43.396225"
   height="77.675659"
   x="174.84688"
   y="63.151711" /><path
   sodipodi:type="arc"
   style="fill:#cccccc;fill-opacity:1"
   id="path3056-1"
   sodipodi:cx="253.83051"
   sodipodi:cy="65.084747"
   sodipodi:rx="21.694916"
   sodipodi:ry="21.694916"
   d="m 275.52542,65.084747 a 21.694916,21.694916 0 1 1 -43.38983,0 21.694916,21.694916 0 1 1 43.38983,0 z"
   transform="translate(-57.285514,78.907187)" /><path
   style="fill:#b3b3b3;fill-rule:evenodd;stroke:none"
   d="m 19.573086,119.78157 c -0.2047,0.11185 -0.593718,-0.10601 -1.126818,-0.67609 -0.5331,-0.57008 -1.210044,-1.49473 -1.910818,-2.81251 -0.700774,-1.31777 -1.425157,-3.032 -1.976647,-5.15368 -0.551489,-2.12168 -0.929742,-4.6544 -0.865879,-7.52899 0.05899,-2.55818 0.472977,-5.369415 1.405832,-8.28186 0.932854,-2.912445 2.385852,-5.927323 4.496259,-8.78616 1.694764,-2.290454 3.797044,-4.455097 6.294161,-6.335474 2.497118,-1.880377 5.389436,-3.47642 8.614905,-4.597504 3e-6,-10e-7 6e-6,-2e-6 9e-6,-3e-6 5.659777,-1.959052 12.25313,-2.401401 18.767803,-0.65688 4.685264,1.326968 9.096535,3.639628 13.037884,6.725529 3.941349,3.085902 7.412111,6.944357 10.215998,11.222171 2.418748,3.638556 4.464688,7.498561 6.272598,11.460691 1.80791,3.96213 3.378224,8.02598 4.88858,12.05429 0.200556,0.53491 0.399452,1.06741 0.597167,1.59719 1.628246,4.25276 3.203707,8.37895 4.940518,12.22816 1.736811,3.84922 3.635686,7.42116 5.865441,10.60582 2.442301,3.43717 5.256931,6.52942 8.300941,8.93851 3.04401,2.40908 6.31746,4.13429 9.70538,4.97647 0,0 0,0 1e-5,0 4.46221,1.20132 9.13658,1.00803 13.18649,-0.21194 2.31369,-0.69314 4.46305,-1.72867 6.37381,-2.97708 1.91076,-1.24842 3.58314,-2.70986 4.98515,-4.28067 1.75368,-1.95986 3.10464,-4.1084 4.10477,-6.24252 1.00012,-2.13412 1.65019,-4.25508 2.03806,-6.24166 0.43876,-2.23667 0.55133,-4.31607 0.51644,-6.13838 -0.0349,-1.82231 -0.21684,-3.39068 -0.3983,-4.67343 -0.18146,-1.28274 -0.36171,-2.28282 -0.43266,-2.99028 -0.0709,-0.70746 -0.0314,-1.12443 0.1731,-1.22372 0.20451,-0.0993 0.56855,0.12272 1.0547,0.68503 0.48616,0.56231 1.09415,1.46699 1.71311,2.74494 0.61896,1.27796 1.24859,2.93215 1.70886,4.96726 0.46027,2.0351 0.75077,4.45432 0.62749,7.18958 -0.11126,2.42897 -0.55264,5.09195 -1.4735,7.85072 -0.92086,2.75876 -2.32235,5.61442 -4.33058,8.33423 -1.60994,2.17595 -3.59569,4.2429 -5.95045,6.05748 -2.35477,1.81457 -5.0789,3.37674 -8.12252,4.51354 -5.3324,1.98483 -11.56794,2.61632 -17.83815,1.24366 0,0 -1e-5,0 -1e-5,0 -4.70018,-1.0976 -9.1891,-3.19383 -13.24425,-6.10079 -4.055158,-2.90696 -7.675806,-6.62412 -10.626547,-10.8164 -2.694746,-3.78195 -4.961351,-7.84861 -6.942565,-12.05251 -1.981214,-4.2039 -3.677567,-8.54448 -5.286636,-12.84746 -0.20389,-0.5316 -0.406932,-1.06324 -0.609585,-1.59458 -3.052289,-8.00288 -5.910287,-15.50267 -9.952518,-21.669232 -2.353393,-3.530174 -5.066772,-6.741893 -8.030854,-9.285945 -2.964082,-2.544052 -6.178964,-4.419642 -9.552704,-5.411688 -4.616312,-1.458469 -9.542113,-1.406557 -13.814425,-0.2106 -2e-6,0 -4e-6,10e-7 -6e-6,2e-6 -2.437088,0.677674 -4.706363,1.734738 -6.72037,3.028384 -2.014006,1.293645 -3.77297,2.824008 -5.237488,4.476864 -1.829449,2.058758 -3.222679,4.328515 -4.235621,6.583253 -1.012943,2.254738 -1.646432,4.495852 -1.99652,6.590442 -0.395775,2.35327 -0.440557,4.53652 -0.332404,6.44463 0.108153,1.90811 0.368948,3.54462 0.620719,4.88071 0.25177,1.3361 0.493845,2.37516 0.608042,3.11217 0.114197,0.73701 0.0993,1.17446 -0.105402,1.28631 z"
   id="path3079"
   inkscape:path-effect="#path-effect3081;#path-effect3083"
   inkscape:original-d="m 19.573086,119.78157 c 0,0 17.959922,-40.64891 32.456141,-40.510658 14.279335,0.136168 31.578944,40.510658 31.578944,40.510658 0,0 16.737579,39.43339 32.456139,39.28306 15.51878,-0.14844 31.57896,-39.28306 31.57896,-39.28306"
   inkscape:connector-curvature="0"
   sodipodi:nodetypes="cscsc" /><path
   style="fill:#b3b3b3;fill-rule:evenodd;stroke:none"
   d="m 19.700831,159.84168 c -0.2047,0.11185 -0.593718,-0.10601 -1.126818,-0.67609 -0.533099,-0.57008 -1.210042,-1.49473 -1.910816,-2.81251 -0.700773,-1.31777 -1.425156,-3.032 -1.976645,-5.15368 -0.551488,-2.12168 -0.929741,-4.6544 -0.865877,-7.52899 0.05899,-2.55817 0.472979,-5.36941 1.405833,-8.28186 0.932855,-2.91244 2.385853,-5.92732 4.49626,-8.78615 1.694764,-2.29046 3.797043,-4.4551 6.29416,-6.33547 2.497117,-1.88038 5.389435,-3.47642 8.614903,-4.59751 3e-6,0 6e-6,0 8e-6,0 5.659777,-1.95905 12.253127,-2.4014 18.767799,-0.65688 4.685264,1.32696 9.096535,3.63962 13.037885,6.72552 3.941349,3.0859 7.412111,6.94436 10.215999,11.22217 2.41875,3.63856 4.464691,7.49856 6.272602,11.46069 1.807911,3.96213 3.378226,8.02598 4.888582,12.0543 0.200556,0.5349 0.39945,1.0674 0.597164,1.59718 1.628247,4.25276 3.203707,8.37895 4.940518,12.22817 1.736812,3.84921 3.635686,7.42115 5.865441,10.60582 2.442301,3.43716 5.256931,6.52942 8.300941,8.9385 3.04401,2.40909 6.31746,4.1343 9.70538,4.97648 0,0 0,0 1e-5,0 4.46221,1.20132 9.13659,1.00803 13.1865,-0.21194 2.31369,-0.69314 4.46305,-1.72867 6.3738,-2.97708 1.91076,-1.24842 3.58314,-2.70986 4.98516,-4.28067 1.75367,-1.95986 3.10464,-4.10841 4.10476,-6.24253 1.00013,-2.13412 1.65019,-4.25507 2.03807,-6.24166 0.43876,-2.23667 0.55133,-4.31607 0.51644,-6.13838 -0.0349,-1.82231 -0.21684,-3.39068 -0.39831,-4.67343 -0.18146,-1.28274 -0.36171,-2.28282 -0.43266,-2.99028 -0.0709,-0.70746 -0.0314,-1.12443 0.1731,-1.22372 0.20451,-0.0993 0.56855,0.12272 1.0547,0.68503 0.48616,0.56231 1.09415,1.46699 1.71311,2.74494 0.61896,1.27796 1.24859,2.93215 1.70887,4.96726 0.46027,2.0351 0.75077,4.45432 0.62749,7.18958 -0.11127,2.42897 -0.55265,5.09195 -1.47351,7.85072 -0.92086,2.75877 -2.32235,5.61443 -4.33057,8.33424 -1.60994,2.17595 -3.59569,4.2429 -5.95046,6.05748 -2.35476,1.81457 -5.07889,3.37674 -8.12252,4.51354 -5.33239,1.98483 -11.56794,2.61632 -17.83815,1.24366 0,0 -1e-5,0 -1e-5,0 -4.70018,-1.0976 -9.1891,-3.19384 -13.24425,-6.1008 -4.05516,-2.90696 -7.675808,-6.62411 -10.626548,-10.8164 -2.694745,-3.78195 -4.96135,-7.8486 -6.942564,-12.05251 -1.981214,-4.2039 -3.677567,-8.54448 -5.286636,-12.84746 -0.203889,-0.5316 -0.40693,-1.06323 -0.609582,-1.59457 -3.05229,-8.00288 -5.910289,-15.50267 -9.952522,-21.66924 -2.353394,-3.53017 -5.066774,-6.74189 -8.030856,-9.28594 -2.964082,-2.54405 -6.178964,-4.41964 -9.552704,-5.41169 -4.616312,-1.45846 -9.542111,-1.40655 -13.814422,-0.2106 -2e-6,1e-5 -4e-6,1e-5 -6e-6,1e-5 -2.437088,0.67767 -4.706362,1.73473 -6.720368,3.02838 -2.014006,1.29364 -3.77297,2.82401 -5.237488,4.47686 -1.829449,2.05876 -3.222679,4.32852 -4.235621,6.58325 -1.012943,2.25474 -1.646433,4.49585 -1.996521,6.59044 -0.395776,2.35327 -0.440559,4.53652 -0.332406,6.44463 0.108152,1.90811 0.368946,3.54462 0.620717,4.88072 0.25177,1.33609 0.493844,2.37515 0.608041,3.11216 0.114196,0.73701 0.0993,1.17446 -0.105403,1.28631 z"
   id="path3079-4"
   inkscape:path-effect="#path-effect3109;#path-effect3111"
   inkscape:original-d="m 19.700831,159.84168 c 0,0 17.959923,-40.64891 32.456142,-40.51065 14.279339,0.13616 31.578948,40.51065 31.578948,40.51065 0,0 16.737579,39.4334 32.456139,39.28307 15.51878,-0.14844 31.57896,-39.28307 31.57896,-39.28307"
   inkscape:connector-curvature="0"
   sodipodi:nodetypes="cscsc" /></svg>