<?xml version="1.0" encoding="UTF-8" standalone="no"?>
<!-- Generator: Adobe Illustrator 15.1.0, SVG Export Plug-In . SVG Version: 6.00 Build 0)  -->

<svg
   xmlns:dc="http://purl.org/dc/elements/1.1/"
   xmlns:cc="http://creativecommons.org/ns#"
   xmlns:rdf="http://www.w3.org/1999/02/22-rdf-syntax-ns#"
   xmlns:svg="http://www.w3.org/2000/svg"
   xmlns="http://www.w3.org/2000/svg"
   xmlns:sodipodi="http://sodipodi.sourceforge.net/DTD/sodipodi-0.dtd"
   xmlns:inkscape="http://www.inkscape.org/namespaces/inkscape"
   version="1.1"
   id="Layer_1"
   x="0px"
   y="0px"
   width="480"
   height="480"
   viewBox="0 0 480 480"
   enable-background="new 0 0 512 512"
   xml:space="preserve"
   inkscape:version="0.48.5 r10040"
   sodipodi:docname="fog.svg"><metadata
   id="metadata76"><rdf:RDF><cc:Work
       rdf:about=""><dc:format>image/svg+xml</dc:format><dc:type
         rdf:resource="http://purl.org/dc/dcmitype/StillImage" /></cc:Work></rdf:RDF></metadata><defs
   id="defs74" /><sodipodi:namedview
   pagecolor="#ffffff"
   bordercolor="#666666"
   borderopacity="1"
   objecttolerance="10"
   gridtolerance="10"
   guidetolerance="10"
   inkscape:pageopacity="0"
   inkscape:pageshadow="2"
   inkscape:window-width="640"
   inkscape:window-height="480"
   id="namedview72"
   showgrid="false"
   inkscape:zoom="0.4609375"
   inkscape:cx="225"
   inkscape:cy="193.56901"
   inkscape:window-x="0"
   inkscape:window-y="0"
   inkscape:window-maximized="0"
   inkscape:current-layer="Layer_1"
   fit-margin-top="0"
   fit-margin-left="0"
   fit-margin-right="0"
   fit-margin-bottom="0" />

<path
   d="M 464,224.54237 H 382.375 C 374.312,152.75037 313.938,96.542373 240,96.542373 c -49.812,0 -93.75,25.457997 -119.625,63.999997 H 16 c -8.833,0 -16,7.167 -16,16 0,8.833 7.167,16 16,16 h 88.833 c -3.624,10.208 -5.979,20.896 -7.208,32 H 48 c -8.833,0 -16,7.167 -16,16 0,8.833 7.167,16 16,16 h 49.625 c 1.229,11.084 3.584,21.812 7.208,32 H 18.916 c -10.457,0 -18.916,7.167 -18.916,16 0,8.833 8.459,16 18.916,16 h 101.459 c 25.875,38.562 69.812,64 119.625,64 49.812,0 93.75,-25.438 119.624,-64 h 37.46 c 10.457,0 18.916,-7.167 18.916,-16 0,-8.833 -8.459,-16 -18.916,-16 h -21.917 c 3.624,-10.188 5.958,-20.916 7.208,-32 H 464 c 8.833,0 16,-7.167 16,-16 0,-8.833 -7.167,-16 -16,-16 z m -324.771,-32 H 240 c 8.833,0 16,-7.167 16,-16 0,-8.833 -7.167,-16 -16,-16 h -78.146 c 20.209,-19.729 47.729,-32 78.146,-32 56.291,0 102.542,41.875 110.375,96 h -220.75 c 1.625,-11.312 4.834,-22.042 9.604,-32 z m 100.771,160 c -30.417,0 -57.938,-12.291 -78.146,-32 h 156.271 c -20.187,19.709 -47.708,32 -78.125,32 z m 100.75,-64 H 139.229 c -4.77,-9.958 -7.979,-20.688 -9.604,-32 h 220.75 c -1.625,11.312 -4.834,22.042 -9.625,32 z"
   id="path70"
   style="fill:#b3b3b3"
   inkscape:connector-curvature="0" />
</svg>