<?xml version="1.0" encoding="UTF-8" standalone="no"?>
<!-- Generator: Adobe Illustrator 15.1.0, SVG Export Plug-In . SVG Version: 6.00 Build 0)  -->

<svg
   xmlns:dc="http://purl.org/dc/elements/1.1/"
   xmlns:cc="http://creativecommons.org/ns#"
   xmlns:rdf="http://www.w3.org/1999/02/22-rdf-syntax-ns#"
   xmlns:svg="http://www.w3.org/2000/svg"
   xmlns="http://www.w3.org/2000/svg"
   xmlns:sodipodi="http://sodipodi.sourceforge.net/DTD/sodipodi-0.dtd"
   xmlns:inkscape="http://www.inkscape.org/namespaces/inkscape"
   version="1.1"
   id="Layer_1"
   x="0px"
   y="0px"
   width="512px"
   height="512px"
   viewBox="0 0 512 512"
   enable-background="new 0 0 512 512"
   xml:space="preserve"
   inkscape:version="0.48.5 r10040"
   sodipodi:docname="windbearing_21.svg"><metadata
   id="metadata80"><rdf:RDF><cc:Work
       rdf:about=""><dc:format>image/svg+xml</dc:format><dc:type
         rdf:resource="http://purl.org/dc/dcmitype/StillImage" /><dc:title></dc:title></cc:Work></rdf:RDF></metadata><defs
   id="defs78" /><sodipodi:namedview
   pagecolor="#ffffff"
   bordercolor="#666666"
   borderopacity="1"
   objecttolerance="10"
   gridtolerance="10"
   guidetolerance="10"
   inkscape:pageopacity="0"
   inkscape:pageshadow="2"
   inkscape:window-width="1366"
   inkscape:window-height="746"
   id="namedview76"
   showgrid="false"
   inkscape:zoom="0.86"
   inkscape:cx="256"
   inkscape:cy="313.58233"
   inkscape:window-x="-8"
   inkscape:window-y="-8"
   inkscape:window-maximized="1"
   inkscape:current-layer="Layer_1" />


<g
   id="g3083"
   transform="matrix(0,-1,1,0,-0.00160443,512.00201)"><g
     style="fill:#b3b3b3"
     id="g70">
	<g
   style="fill:#b3b3b3"
   id="g72">
		<path
   style="fill:#b3b3b3"
   id="path74"
   d="M 256,0 C 114.604,0 0,114.604 0,256 0,397.375 114.604,512 256,512 397.375,512 512,397.375 512,256 512,114.604 397.375,0 256,0 z m 0,448 C 150.125,448 64,361.875 64,256 64,150.125 150.125,64 256,64 c 105.875,0 192,86.125 192,192 0,105.875 -86.125,192 -192,192 z m -96,-96 128,-64 64,-128 -128,64 -64,128 z"
   inkscape:connector-curvature="0" />
	</g>
</g><path
     inkscape:connector-curvature="0"
     id="path3079"
     d="m 272.51174,271.35583 -15.56818,-15.57354 46.37656,-46.23239 c 25.50711,-25.42781 46.44184,-46.16842 46.52162,-46.09024 0.14789,0.1449 -61.42077,123.46971 -61.641,123.46971 -0.0664,0 -7.1265,-7.00809 -15.689,-15.57354 z"
     style="fill:#ff0000;fill-opacity:1;fill-rule:nonzero;stroke:#d40000;stroke-width:0.47393364" /><path
     inkscape:connector-curvature="0"
     id="path3081"
     d="m 240.54349,239.82713 -15.97167,-15.97254 63.43827,-31.71896 c 34.89105,-17.44542 63.47636,-31.68086 63.52291,-31.63431 0.0465,0.0465 -0.24096,0.74268 -0.63893,1.54695 -0.58332,1.17887 -0.77474,1.41984 -0.98758,1.2432 -0.21071,-0.17487 -1.34314,0.85004 -5.60821,5.07571 -16.02711,15.87909 -36.68091,36.43197 -60.75306,60.45621 l -27.03006,26.97627 -15.97167,-15.97253 z"
     style="fill:#d40000;fill-opacity:1;fill-rule:nonzero;stroke:#d40000;stroke-width:0.19305019" /></g></svg>