/* XPM */
static char * cryptOn_xpm[] = {
"45 28 5 1",
" 	c None",
".	c #0406AB",
"+	c #757575",
"@	c #787878",
"#	c #797979",
".............................................",
".............................................",
".............................................",
"....#+++++++++++++++++++++++++++++++++++#....",
"...#######################################...",
"...#######################################...",
"...############################..#########...",
"...##########################......#######...",
"...#########################........######...",
"...#######################....####....####...",
"...#####@@@@@@@@@@@@@@@@##...######...####...",
"...######################...#@###@@#...###...",
"...##@.....................##@@###@@@...##...",
"...##@.....................@########@...##...",
"...###.....................#########@...##...",
"...###@@......###########...#@@#####...###...",
"...###@@......############...#@####...####...",
"...###++......###########+....####....+###...",
"...#####......##############........######...",
"...#####.+..#.##############+......#######...",
"...############################..#########...",
"...#######################################...",
"...#######################################...",
"...#######################################...",
"....#+++++++++++++++++++++++++++++++++++#....",
".............................................",
".............................................",
"............................................."};
