/* XPM */
static char * has_timer_xpm[] = {
"45 36 3 1",
" 	c None",
".	c #0506AB",
"+	c #797979",
".............................................",
".............................................",
".............................................",
".............................................",
"....+++++++++++++++++++++++++++++++++++++....",
"...+++++++++++++++++++++++++++++++++++++++...",
"...+++++++++++++++++++++++++++++++++++++++...",
"...+++++++++++++++++++++++++++++++++++++++...",
"...+++++++++++++++++++++++++++++++++++++++...",
"...+++++++++++++++++++++++++++++++++++++++...",
"...++++++.........++...++...+++++...++++++...",
"...++++++.........++...++....+++....++++++...",
"...++++++.........++...++.....+.....++++++...",
"...++++++.........++...++...........++++++...",
"...+++++++++...+++++...++...........++++++...",
"...+++++++++...+++++...++...........++++++...",
"...+++++++++...+++++...++...........++++++...",
"...+++++++++...+++++...++...........++++++...",
"...+++++++++...+++++...++...+...+...++++++...",
"...+++++++++...+++++...++...++.++...++++++...",
"...+++++++++...+++++...++...+++++...++++++...",
"...+++++++++...+++++...++...+++++...++++++...",
"...+++++++++...+++++...++...+++++...++++++...",
"...+++++++++...+++++...++...+++++...++++++...",
"...+++++++++...+++++...++...+++++...++++++...",
"...+++++++++...+++++...++...+++++...++++++...",
"...+++++++++++++++++++++++++++++++++++++++...",
"...+++++++++++++++++++++++++++++++++++++++...",
"...+++++++++++++++++++++++++++++++++++++++...",
"...+++++++++++++++++++++++++++++++++++++++...",
"...+++++++++++++++++++++++++++++++++++++++...",
"....+++++++++++++++++++++++++++++++++++++....",
".............................................",
".............................................",
".............................................",
"............................................."};
